<svg width="32" height="32" viewBox="0 0 32 32" fill="none" xmlns="http://www.w3.org/2000/svg">
<g id="google-icon 2" clip-path="url(#clip0_43_138)">
<g id="Group">
<g id="Clip path group">
<mask id="mask0_43_138" style="mask-type:luminance" maskUnits="userSpaceOnUse" x="3" y="0" width="27" height="33">
<g id="C">
<path id="Vector" d="M3 0H29.0596V32.0018H3V0Z" fill="white"/>
</g>
</mask>
<g mask="url(#mask0_43_138)">
<g id="Group_2">
<path id="Vector_2" d="M24.7611 17.0029C24.7244 12.9544 28.0705 11.0092 28.2213 10.9136C26.3386 8.15949 23.4116 7.78442 22.3673 7.7403C19.8779 7.48658 17.5062 9.20746 16.2413 9.20746C14.9764 9.20746 13.0275 7.77707 10.961 7.81752C8.24359 7.85797 5.73949 9.39499 4.33851 11.8292C1.51818 16.7198 3.6178 23.9747 6.36827 27.9496C7.71409 29.8911 9.31363 32.079 11.4206 31.9981C13.4504 31.9172 14.2152 30.6854 16.6641 30.6854C19.1131 30.6854 19.8044 31.9981 21.9445 31.9577C24.125 31.9136 25.5076 29.972 26.8424 28.0232C28.3831 25.7691 29.0192 23.5849 29.056 23.4709C29.0082 23.4525 24.8053 21.842 24.7611 17.0029Z" fill="black"/>
</g>
</g>
</g>
<path id="Vector_3" d="M20.7347 5.11117C21.8525 3.758 22.6063 1.87532 22.4004 0C20.7898 0.0661878 18.841 1.07371 17.6864 2.42689C16.6531 3.62194 15.7448 5.53771 15.9912 7.37626C17.782 7.51599 19.6168 6.46066 20.7347 5.11117Z" fill="black"/>
</g>
</g>
<defs>
<clipPath id="clip0_43_138">
<rect width="32" height="32" fill="white"/>
</clipPath>
</defs>
</svg>
