<svg width="24" height="24" viewBox="0 0 24 24" fill="none" xmlns="http://www.w3.org/2000/svg">
<path d="M14.875 18.8C15.075 18.8 15.275 18.7 15.375 18.6C15.675 18.3 15.675 17.8 15.375 17.5L10.075 12.2C9.97501 12.1 9.97501 12.1 9.87501 12C9.97501 11.9 9.97501 11.9 10.075 11.8L15.375 6.5C15.675 6.2 15.675 5.7 15.375 5.4C15.075 5.1 14.575 5.1 14.275 5.4L8.97501 10.7C8.57501 11.1 8.27501 11.4 8.27501 11.9C8.27501 12.4 8.57501 12.7 8.97501 13.1L14.275 18.4C14.475 18.7 14.675 18.8 14.875 18.8Z" fill="#141B34"/>
</svg>
