<svg width="24" height="24" viewBox="0 0 24 24" fill="none" xmlns="http://www.w3.org/2000/svg">
<path d="M20 11.3H5.79999L9.49999 7.6C9.79999 7.3 9.79999 6.8 9.49999 6.5C9.19999 6.2 8.69999 6.2 8.39999 6.5L4.09999 10.8C3.69999 11.2 3.39999 11.5 3.39999 12C3.39999 12.5 3.69999 12.8 4.09999 13.2L8.39999 17.5C8.49999 17.6 8.69999 17.7 8.89999 17.7C9.09999 17.7 9.29999 17.6 9.39999 17.5C9.69999 17.2 9.69999 16.7 9.39999 16.4L5.69999 12.7H20C20.4 12.7 20.8 12.4 20.8 11.9C20.8 11.4 20.4 11.3 20 11.3Z" fill="#141B34"/>
</svg>
