<svg width="24" height="24" viewBox="0 0 24 24" fill="none" xmlns="http://www.w3.org/2000/svg">
<path fill-rule="evenodd" clip-rule="evenodd" d="M15.5303 5.46967C15.8232 5.76256 15.8232 6.23744 15.5303 6.53033L10.2375 11.8232C10.1674 11.8933 10.1106 11.9501 10.0623 12C10.1106 12.0499 10.1674 12.1067 10.2374 12.1767L15.5303 17.4697C15.8232 17.7626 15.8232 18.2374 15.5303 18.5303C15.2374 18.8232 14.7626 18.8232 14.4697 18.5303L9.17682 13.2375C9.17681 13.2375 9.17684 13.2375 9.17682 13.2375C9.16881 13.2294 9.16071 13.2214 9.15261 13.2133C9.00745 13.0682 8.85048 12.9114 8.73585 12.7611C8.60161 12.5852 8.45712 12.3335 8.45712 12C8.45712 11.6665 8.60161 11.4148 8.73585 11.2389C8.85048 11.0886 9.00745 10.9318 9.15261 10.7867C9.16071 10.7786 9.16878 10.7706 9.17679 10.7626C9.17678 10.7626 9.1768 10.7626 9.17679 10.7626L14.4697 5.46967C14.7626 5.17678 15.2374 5.17678 15.5303 5.46967Z" fill="#141B34"/>
</svg>
