<svg width="24" height="24" viewBox="0 0 24 24" fill="none" xmlns="http://www.w3.org/2000/svg">
<path d="M20 5.3C19.6 5.3 19.2 5.6 19.2 6.1V18.1C19.2 18.5 19.5 18.9 20 18.9C20.5 18.9 20.8 18.6 20.8 18.1V6C20.8 5.6 20.4 5.3 20 5.3Z" fill="#141B34"/>
<path d="M12.5 7.5C12.2 7.2 11.7 7.2 11.4 7.5C11.1 7.8 11.1 8.3 11.4 8.6L14.1 11.3H4.00001C3.60001 11.3 3.20001 11.6 3.20001 12.1C3.20001 12.6 3.50001 12.9 4.00001 12.9H14.2L11.5 15.6C11.2 15.9 11.2 16.4 11.5 16.7C11.6 16.8 11.8 16.9 12 16.9C12.2 16.9 12.4 16.8 12.5 16.7L15.8 13.4C16.2 13 16.5 12.7 16.5 12.2C16.5 11.7 16.2 11.4 15.8 11L12.5 7.5Z" fill="#141B34"/>
</svg>
