<svg width="24" height="24" viewBox="0 0 24 24" fill="none" xmlns="http://www.w3.org/2000/svg">
<path d="M15 19.8C14.6 19.8 14.2 19.5 14.2 19V6.7C14.2 5.5 14.2 4.7 15 4.4C15.8 4.1 16.3 4.7 17.2 5.5L19.5 7.7C19.8 8 19.8 8.5 19.5 8.8C19.2 9.1 18.7 9.1 18.4 8.8L16.1 6.6C16 6.5 15.8 6.3 15.7 6.2C15.7 6.4 15.7 6.6 15.7 6.8V19C15.8 19.4 15.4 19.8 15 19.8Z" fill="#141B34"/>
<path d="M8.60002 19.8C8.00002 19.8 7.50002 19.3 6.80002 18.6L4.50002 16.4C4.20002 16.1 4.20002 15.6 4.50002 15.3C4.80002 15 5.30002 15 5.60002 15.3L7.90002 17.5C8.00002 17.6 8.20002 17.8 8.30002 17.9C8.30002 17.7 8.30002 17.5 8.30002 17.3V5C8.30002 4.6 8.60002 4.2 9.10002 4.2C9.60002 4.2 9.80002 4.6 9.80002 5V17.3C9.80002 18.5 9.80002 19.3 9.00002 19.6C8.80002 19.7 8.70002 19.8 8.60002 19.8Z" fill="#141B34"/>
</svg>
