<svg width="24" height="24" viewBox="0 0 24 24" fill="none" xmlns="http://www.w3.org/2000/svg">
<path d="M8 12C7.8 12 7.6 12.1 7.4 12.2C7.2 12.3 7.1 12.5 7 12.6C7 12.8 7 13 7 13.2C7 13.4 7.1 13.6 7.3 13.7C7.4 13.9 7.6 14 7.8 14C8 14 8.2 14 8.4 13.9C8.6 13.8 8.7 13.7 8.8 13.5C8.9 13.4 9 13.2 9 13C9 12.7 8.9 12.5 8.7 12.3C8.5 12.1 8.3 12 8 12Z" fill="#141B34"/>
<path d="M12 16C11.8 16 11.6 16.1 11.4 16.2C11.2 16.3 11.1 16.5 11 16.6C11 16.8 11 17 11 17.2C11 17.4 11.1 17.6 11.3 17.7C11.4 17.8 11.6 17.9 11.8 18C12 18 12.2 18 12.4 17.9C12.6 17.8 12.7 17.7 12.8 17.5C12.9 17.3 13 17.1 13 16.9C13 16.6 12.9 16.4 12.7 16.2C12.5 16 12.3 16 12 16Z" fill="#141B34"/>
<path d="M8 16C7.8 16 7.6 16.1 7.4 16.2C7.2 16.3 7.1 16.5 7 16.6C7 16.8 7 17 7 17.2C7 17.4 7.1 17.6 7.3 17.7C7.4 17.9 7.6 18 7.8 18C8 18 8.2 18 8.4 17.9C8.6 17.8 8.7 17.7 8.8 17.5C8.9 17.4 9 17.2 9 17C9 16.7 8.9 16.5 8.7 16.3C8.5 16.1 8.3 16 8 16Z" fill="#141B34"/>
<path d="M12 12C11.8 12 11.6 12.1 11.4 12.2C11.2 12.3 11.1 12.5 11 12.6C11 12.8 11 13 11 13.2C11 13.4 11.1 13.6 11.3 13.7C11.4 13.8 11.6 13.9 11.8 14C12 14.1 12.2 14 12.4 13.9C12.6 13.8 12.7 13.7 12.8 13.5C12.9 13.3 13 13.1 13 12.9C13 12.6 12.9 12.4 12.7 12.2C12.5 12 12.3 12 12 12Z" fill="#141B34"/>
<path d="M16 12C15.8 12 15.6 12.1 15.4 12.2C15.2 12.3 15.1 12.5 15 12.6C15 12.8 15 13 15 13.2C15 13.4 15.1 13.6 15.3 13.7C15.4 13.8 15.6 13.9 15.8 14C16 14.1 16.2 14 16.4 13.9C16.6 13.8 16.7 13.7 16.8 13.5C16.9 13.3 17 13.1 17 12.9C17 12.6 16.9 12.4 16.7 12.2C16.5 12 16.3 12 16 12Z" fill="#141B34"/>
<path d="M20.8 3.9C20.2 3.3 19.5 2.9 18.8 2.7V2C18.8 1.8 18.7 1.6 18.6 1.5C18.5 1.4 18.3 1.3 18.1 1.3C17.9 1.3 17.7 1.4 17.6 1.5C17.5 1.6 17.4 1.8 17.4 2V2.4C16.3 2.3 14.9 2.3 13.1 2.3H11C9.2 2.3 7.8 2.3 6.7 2.4V2C6.7 1.8 6.6 1.6 6.5 1.5C6.4 1.3 6.2 1.3 6 1.3C5.8 1.3 5.6 1.3 5.5 1.5C5.3 1.6 5.2 1.8 5.2 2V2.6C4.4 2.8 3.7 3.2 3.2 3.8C1.7 5.4 1.7 7.7 1.7 12.2V12.7C1.7 17.2 1.7 19.5 3.2 21.1C4.7 22.7 6.8 22.7 11.1 22.7H13C17.2 22.7 19.4 22.7 20.8 21.1C22.2 19.5 22.2 17.2 22.2 12.7V12.2C22.2 7.7 22.2 5.4 20.8 3.9ZM5.3 4.2C5.3 4.4 5.4 4.5 5.6 4.6C5.7 4.7 5.8 4.8 6 4.8C6.2 4.8 6.4 4.7 6.5 4.6C6.7 4.4 6.7 4.2 6.7 4V3.9C8.2 3.8 9.6 3.7 11 3.8H13C14.4 3.8 15.9 3.8 17.3 3.9V4C17.3 4.2 17.4 4.4 17.5 4.5C17.6 4.6 17.8 4.7 18 4.7C18.2 4.7 18.3 4.6 18.4 4.5C18.5 4.4 18.6 4.3 18.7 4.1C19.1 4.2 19.4 4.5 19.7 4.8C20.2 5.5 20.6 6.3 20.6 7.2H3.4C3.4 6.3 3.8 5.5 4.3 4.8C4.6 4.6 4.9 4.4 5.3 4.2ZM20.7 12.8C20.7 16.9 20.7 19 19.7 20.2C18.6 21.3 16.8 21.3 13 21.3H11.1C7.3 21.3 5.4 21.3 4.3 20.2C3.3 19.1 3.3 17 3.3 12.8V12.3C3.3 10.9 3.3 9.8 3.3 8.8H20.7C20.7 9.8 20.7 10.9 20.7 12.3V12.8Z" fill="#141B34"/>
</svg>
