<svg width="24" height="24" viewBox="0 0 24 24" fill="none" xmlns="http://www.w3.org/2000/svg">
<path d="M17.4 22.7C17 22.7 16.7 22.7 16.3 22.6C14.7 22.3 13.3 21.7 11.7 20.8C8.2 18.8 5.1 15.7 3.1 12.2C2.2 10.6 1.7 9.2 1.3 7.6C0.899995 5.4 1.8 3.1 3.6 1.6C4.1 1.2 4.6 1 5.2 1.2C5.79999 1.3 6.2 1.7 6.5 2.2L7.4 3.8C8.1 5.1 8.6 5.9 8.5 6.8C8.5 7.7 7.9 8.3 6.9 9.5L4.7 12C6.5 14.9 9.1 17.5 12 19.3L14.5 17.1C15.7 16.1 16.3 15.5 17.2 15.5C18.1 15.4 18.8 15.8 20.2 16.6L21.8 17.5C22.3 17.8 22.7 18.3 22.8 18.8C22.9 19.3 22.7 19.9 22.4 20.4C21 21.9 19.2 22.7 17.4 22.7ZM13.4 20.1C14.5 20.6 15.5 21 16.6 21.2C18.2 21.5 20 20.8 21.1 19.4C21.2 19.3 21.3 19.2 21.2 19C21.2 18.9 21.1 18.8 20.9 18.7L19.3 17.8C18.1 17.1 17.6 16.9 17.2 16.9C16.8 16.9 16.4 17.3 15.3 18.2L13.4 20.1ZM5 2.8C4.9 2.8 4.7 2.9 4.7 2.9C3.2 4.1 2.5 5.8 2.8 7.4C3 8.5 3.4 9.5 3.9 10.6L5.7 8.5C6.6 7.5 6.9 7.1 7 6.6C7.1 6.1 6.79999 5.8 6.2 4.6L5.3 3C5.2 2.9 5.1 2.8 5 2.8Z" fill="#141B34"/>
</svg>
