<svg width="24" height="24" viewBox="0 0 24 24" fill="none" xmlns="http://www.w3.org/2000/svg">
<path d="M22.6 13.5L22.4 11C22.3 9.3 22.2 8.5 21.9 7.7C21.5 6.8 20.7 6 19.7 5.6C19 5.3 18.2 5.3 17.1 5.3L16.7 4.3C16.3 3.4 15.9 2.2 14.8 1.7C14.1 1.4 13.4 1.4 12 1.4C10.7 1.4 9.9 1.4 9.3 1.7C8.1 2.2 7.7 3.3 7.3 4.2L6.9 5.2C5.7 5.2 5 5.2 4.3 5.5C3.3 6 2.5 6.7 2.1 7.6C1.7 8.4 1.7 9.2 1.6 10.9L1.4 13.4C1.1 17.6 0.999997 19.7 2.4 21.2C3.8 22.7 5.9 22.7 10 22.7H14C18.2 22.7 20.2 22.7 21.6 21.2C23 19.8 22.8 17.6 22.6 13.5ZM20.5 20.2C19.6 21.2 17.7 21.2 14 21.2H10C6.3 21.2 4.4 21.2 3.5 20.2C2.5 19.2 2.7 17.3 2.9 13.5L3.1 11C3.2 9.5 3.2 8.7 3.5 8.3C3.7 7.7 4.2 7.2 4.8 7C5.1 6.9 5.5 6.8 6.3 6.8C6.2 7.1 6.3 7.5 6.7 7.7C7.1 7.9 7.5 7.7 7.7 7.3L8.7 4.8C9 4 9.3 3.2 9.9 2.9C10.3 2.7 10.8 2.7 12 2.7C13.1 2.7 13.7 2.7 14.1 2.9C14.7 3.2 15 3.9 15.3 4.7L16.3 7.2C16.4 7.5 16.7 7.7 17 7.7C17.1 7.7 17.2 7.7 17.3 7.6C17.7 7.5 17.9 7 17.7 6.7C18.4 6.7 18.8 6.8 19.2 6.9C19.8 7.2 20.3 7.6 20.6 8.2C20.8 8.7 20.9 9.4 21 10.9L21.2 13.4C21.3 17.3 21.4 19.2 20.5 20.2Z" fill="#141B34"/>
<path d="M12 9.8C9.69998 9.8 7.69998 11.7 7.69998 14.1C7.69998 16.4 9.59998 18.4 12 18.4C14.3 18.4 16.3 16.5 16.3 14.1C16.3 11.7 14.3 9.8 12 9.8ZM12 16.8C10.5 16.8 9.19998 15.6 9.19998 14C9.19998 12.4 10.4 11.2 12 11.2C13.6 11.2 14.8 12.4 14.8 14C14.8 15.6 13.5 16.8 12 16.8Z" fill="#141B34"/>
<path d="M12 7C12.6 7 13 6.6 13 6C13 5.4 12.6 5 12 5C11.4 5 11 5.4 11 6C11 6.6 11.5 7 12 7Z" fill="#141B34"/>
</svg>
