<svg width="24" height="24" viewBox="0 0 24 24" fill="none" xmlns="http://www.w3.org/2000/svg">
<path d="M22.5 9.9C22.4 9.5 22 9.2 21.6 9.3C21.2 9.4 20.9 9.8 21 10.2C21.1 10.8 21.2 11.4 21.2 12.1C21.2 17.2 17.1 21.4 11.9 21.4C6.7 21.4 2.8 17.1 2.8 12C2.8 6.9 6.9 2.8 12 2.8C13.6 2.8 15.2 3.2 16.6 4C17 4.2 17.4 4.1 17.6 3.7C17.8 3.3 17.7 2.9 17.3 2.7C15.7 1.8 13.8 1.3 11.9 1.3C6.1 1.3 1.3 6.1 1.3 12C1.3 17.9 6.1 22.8 12 22.8C17.9 22.8 22.8 17.9 22.8 12C22.8 11.3 22.7 10.6 22.5 9.9Z" fill="#141B34"/>
<path d="M11.5 14.6C9.7 11.9 8.3 11.8 8 11.8C7.6 11.8 7.2 12.1 7.2 12.5C7.2 12.9 7.5 13.2 7.9 13.2C7.9 13.2 9.1 13.4 10.8 16.3C10.9 16.5 11.2 16.7 11.4 16.7C11.7 16.7 11.9 16.6 12 16.3C12.1 16.2 17.5 7.3 22.1 5.6C22.5 5.5 22.7 5 22.5 4.6C22.4 4.2 21.9 4 21.5 4.2C17.6 5.8 13.1 12.1 11.5 14.6Z" fill="#141B34"/>
</svg>
