<svg width="24" height="24" viewBox="0 0 24 24" fill="none" xmlns="http://www.w3.org/2000/svg">
<path d="M8 12C7.80222 12 7.60888 12.0586 7.44443 12.1685C7.27998 12.2784 7.15181 12.4346 7.07612 12.6173C7.00043 12.8 6.98063 13.0011 7.01922 13.1951C7.0578 13.3891 7.15304 13.5673 7.29289 13.7071C7.43275 13.847 7.61093 13.9422 7.80491 13.9808C7.99889 14.0194 8.19996 13.9996 8.38268 13.9239C8.56541 13.8482 8.72159 13.72 8.83147 13.5556C8.94135 13.3911 9 13.1978 9 13C9 12.7348 8.89464 12.4804 8.70711 12.2929C8.51957 12.1054 8.26522 12 8 12Z" fill="#141B34"/>
<path d="M12 16C11.8022 16 11.6089 16.0586 11.4444 16.1685C11.28 16.2784 11.1518 16.4346 11.0761 16.6173C11.0004 16.8 10.9806 17.0011 11.0192 17.1951C11.0578 17.3891 11.153 17.5673 11.2929 17.7071C11.4327 17.847 11.6109 17.9422 11.8049 17.9808C11.9989 18.0194 12.2 17.9996 12.3827 17.9239C12.5654 17.8482 12.7216 17.72 12.8315 17.5556C12.9414 17.3911 13 17.1978 13 17C13 16.7348 12.8946 16.4804 12.7071 16.2929C12.5196 16.1054 12.2652 16 12 16Z" fill="#141B34"/>
<path d="M8 16C7.80222 16 7.60888 16.0586 7.44443 16.1685C7.27998 16.2784 7.15181 16.4346 7.07612 16.6173C7.00043 16.8 6.98063 17.0011 7.01922 17.1951C7.0578 17.3891 7.15304 17.5673 7.29289 17.7071C7.43275 17.847 7.61093 17.9422 7.80491 17.9808C7.99889 18.0194 8.19996 17.9996 8.38268 17.9239C8.56541 17.8482 8.72159 17.72 8.83147 17.5556C8.94135 17.3911 9 17.1978 9 17C9 16.7348 8.89464 16.4804 8.70711 16.2929C8.51957 16.1054 8.26522 16 8 16Z" fill="#141B34"/>
<path d="M12 12C11.8022 12 11.6089 12.0586 11.4444 12.1685C11.28 12.2784 11.1518 12.4346 11.0761 12.6173C11.0004 12.8 10.9806 13.0011 11.0192 13.1951C11.0578 13.3891 11.153 13.5673 11.2929 13.7071C11.4327 13.847 11.6109 13.9422 11.8049 13.9808C11.9989 14.0194 12.2 13.9996 12.3827 13.9239C12.5654 13.8482 12.7216 13.72 12.8315 13.5556C12.9414 13.3911 13 13.1978 13 13C13 12.7348 12.8946 12.4804 12.7071 12.2929C12.5196 12.1054 12.2652 12 12 12Z" fill="#141B34"/>
<path d="M16 12C15.8022 12 15.6089 12.0586 15.4444 12.1685C15.28 12.2784 15.1518 12.4346 15.0761 12.6173C15.0004 12.8 14.9806 13.0011 15.0192 13.1951C15.0578 13.3891 15.153 13.5673 15.2929 13.7071C15.4327 13.847 15.6109 13.9422 15.8049 13.9808C15.9989 14.0194 16.2 13.9996 16.3827 13.9239C16.5654 13.8482 16.7216 13.72 16.8315 13.5556C16.9414 13.3911 17 13.1978 17 13C17 12.7348 16.8946 12.4804 16.7071 12.2929C16.5196 12.1054 16.2652 12 16 12Z" fill="#141B34"/>
<path d="M20.8 3.84C20.2466 3.24874 19.5351 2.82878 18.75 2.63V2C18.75 1.80109 18.671 1.61032 18.5303 1.46967C18.3897 1.32902 18.1989 1.25 18 1.25C17.8011 1.25 17.6103 1.32902 17.4697 1.46967C17.329 1.61032 17.25 1.80109 17.25 2V2.37C16.11 2.26 14.72 2.25 12.95 2.25H11.05C9.28 2.25 7.89 2.25 6.75 2.37V2C6.75 1.80109 6.67098 1.61032 6.53033 1.46967C6.38968 1.32902 6.19891 1.25 6 1.25C5.80109 1.25 5.61032 1.32902 5.46967 1.46967C5.32902 1.61032 5.25 1.80109 5.25 2V2.63C4.48291 2.83747 3.78978 3.25681 3.25 3.84C1.75 5.41 1.75 7.7 1.75 12.24V12.76C1.75 17.3 1.75 19.59 3.2 21.16C4.65 22.73 6.81 22.75 11.05 22.75H13C17.24 22.75 19.37 22.75 20.85 21.16C22.33 19.57 22.3 17.3 22.3 12.76V12.24C22.25 7.7 22.25 5.41 20.8 3.84ZM5.29 4.21C5.33351 4.36498 5.42636 4.50156 5.55449 4.599C5.68262 4.69645 5.83903 4.74946 6 4.75C6.19811 4.74741 6.38737 4.66756 6.52747 4.52747C6.66756 4.38737 6.74741 4.19811 6.75 4V3.88C8.17992 3.75875 9.61537 3.71535 11.05 3.75H13C14.4346 3.71535 15.8701 3.75875 17.3 3.88V4C17.3026 4.19811 17.3824 4.38737 17.5225 4.52747C17.6626 4.66756 17.8519 4.74741 18.05 4.75C18.211 4.74946 18.3674 4.69645 18.4955 4.599C18.6236 4.50156 18.7165 4.36498 18.76 4.21C19.1369 4.3509 19.4782 4.57279 19.76 4.86C20.299 5.54417 20.6102 6.37994 20.65 7.25H3.41C3.44979 6.37994 3.76102 5.54417 4.3 4.86C4.57888 4.574 4.91671 4.35219 5.29 4.21ZM20.75 12.76C20.75 16.91 20.75 19 19.7 20.14C18.65 21.28 16.76 21.25 13 21.25H11.1C7.29 21.25 5.38 21.25 4.35 20.14C3.32 19.03 3.35 16.91 3.35 12.76V12.24C3.35 10.86 3.35 9.72 3.35 8.75H20.71C20.71 9.75 20.71 10.86 20.71 12.24L20.75 12.76Z" fill="#141B34"/>
</svg>
