<svg width="24" height="24" viewBox="0 0 24 24" fill="none" xmlns="http://www.w3.org/2000/svg">
<path d="M21.7 9.3C20.8 8.4 19.7 8.3 17.8 8.2C17.8 5.6 17.7 4.1 16.7 2.9C16.5 2.7 16.3 2.4 16 2.2C14.7 1.3 13 1.3 9.49999 1.3C5.99999 1.3 4.29999 1.3 2.99999 2.3C2.69999 2.5 2.49999 2.7 2.29999 3C1.29999 4.3 1.29999 6 1.29999 9.5C1.29999 13 1.29999 14.7 2.39999 16C2.59999 16.2 2.79999 16.5 3.09999 16.7C4.19999 17.6 5.79999 17.8 8.39999 17.8C8.39999 19.7 8.59999 20.8 9.49999 21.7C10.6 22.8 12.2 22.8 15.2 22.8H16.2C19.1 22.8 20.8 22.8 21.9 21.7C23 20.6 23 19 23 16V15C22.8 12.1 22.8 10.4 21.7 9.3ZM3.89999 15.5C3.69999 15.4 3.59999 15.2 3.49999 15.1C2.79999 14.2 2.79999 12.6 2.79999 9.5C2.79999 6.4 2.79999 4.8 3.49999 3.9C3.59999 3.7 3.79999 3.6 3.99999 3.5C4.89999 2.8 6.49999 2.8 9.59999 2.8C12.7 2.8 14.3 2.8 15.2 3.5C15.4 3.6 15.5 3.8 15.6 4C16.2 4.8 16.3 6.1 16.3 8.3C16.2 8.3 16.1 8.3 16.1 8.3H15.1C12.2 8.3 10.5 8.3 9.39999 9.4C8.29999 10.5 8.29999 12.1 8.29999 15.1V16.1C8.29999 16.2 8.29999 16.3 8.29999 16.3C5.99999 16.2 4.69999 16.1 3.89999 15.5ZM21.3 16C21.3 18.6 21.3 19.9 20.6 20.6C19.9 21.3 18.6 21.3 16 21.3H15C12.4 21.3 11.1 21.3 10.4 20.6C9.69999 19.9 9.69999 18.6 9.69999 16V15C9.69999 12.4 9.69999 11.1 10.4 10.4C11.1 9.7 12.4 9.7 15 9.7H16C18.6 9.7 19.9 9.7 20.6 10.4C21.3 11.1 21.3 12.4 21.3 15V16Z" fill="#141B34"/>
</svg>
