<svg width="24" height="24" viewBox="0 0 24 24" fill="none" xmlns="http://www.w3.org/2000/svg">
<path d="M22.6 12C22.4 11.2 21.9 10.6 20.9 9.4L20.8 9.3C20.6 9 20.3 8.7 20 8.5C19.9 8.5 19.8 8.4 19.7 8.4C19.4 5 16 2.3 12 2.3C8 2.3 4.6 5 4.3 8.4C3.8 8.6 3.4 9 3.1 9.4C2.1 10.6 1.6 11.2 1.4 12C1.2 12.6 1.2 13.3 1.4 13.9C1.6 14.8 2.3 15.5 2.8 16.2C2.9 16.3 3 16.5 3.1 16.6C3.5 17 4 17.7 4.9 17.7C5 17.7 5 17.7 5.1 17.7C5.5 17.7 5.8 17.5 6.2 17.3C6.6 17.1 6.8 17 7 16.8C7.6 16.3 7.6 15.6 7.6 15.1V10.7C7.6 10.2 7.6 9.5 7 9C6.9 8.9 6.7 8.8 6.3 8.6C6.1 8.6 5.9 8.5 5.8 8.4C6.1 5.8 8.8 3.7 12 3.7C15.2 3.7 17.9 5.7 18.2 8.4C18 8.5 17.9 8.5 17.7 8.6C17.2 8.8 16.6 9.1 16.4 9.8C16.3 10.1 16.3 10.3 16.3 10.7V15.1C16.3 15.5 16.3 15.7 16.4 16C16.7 16.7 17.3 17 17.7 17.2C17.9 17.3 18.1 17.4 18.3 17.4V17.6C18.3 19 16.8 20.1 15 20.1H13C12.6 20.1 12.2 20.4 12.2 20.9C12.2 21.4 12.5 21.7 13 21.7H15C17.6 21.7 19.8 19.9 19.8 17.7V17.5C19.9 17.5 20 17.4 20 17.4C20.3 17.2 20.5 17 20.9 16.6C21 16.5 21.1 16.3 21.2 16.2C21.8 15.6 22.4 14.8 22.6 13.9C22.8 13.3 22.8 12.7 22.6 12ZM6.3 10.8V15.2C6.3 15.6 6.3 15.7 6.2 15.8C6.2 15.8 6 15.9 5.7 16C5.4 16.1 5.1 16.3 5.1 16.3C4.9 16.3 4.8 16.2 4.4 15.8C4.3 15.7 4.2 15.5 4 15.4C3.5 14.8 3 14.3 2.9 13.7C2.8 13.3 2.8 12.9 2.9 12.5C3 12 3.5 11.5 4.4 10.4C4.7 9.9 4.8 9.8 5 9.8C5.1 9.8 5.3 9.9 5.6 10.1C5.8 10.2 6 10.3 6.1 10.3C6.2 10.3 6.3 10.4 6.3 10.8ZM21.2 13.6C21 14.2 20.5 14.8 20.1 15.3C20 15.4 19.9 15.6 19.7 15.7C19.5 15.9 19.3 16.1 19.3 16.2C19.2 16.2 19.1 16.3 19 16.3C18.9 16.3 18.7 16.2 18.3 16C18 15.8 17.8 15.8 17.8 15.7C17.8 15.7 17.8 15.5 17.8 15.3V10.9C17.8 10.7 17.8 10.5 17.8 10.5C17.8 10.4 18 10.3 18.4 10.1C18.7 10 19 9.8 19 9.8C19.1 9.8 19.2 9.8 19.3 9.9C19.4 10 19.5 10.1 19.6 10.3L19.7 10.5C20.6 11.6 21 12.1 21.1 12.6C21.3 12.8 21.3 13.2 21.2 13.6Z" fill="#141B34"/>
</svg>
