<svg width="24" height="24" viewBox="0 0 24 24" fill="none" xmlns="http://www.w3.org/2000/svg">
<path fill-rule="evenodd" clip-rule="evenodd" d="M1.2 11.6C1.2 5.9 6.1 1.2 12 1.2C17.9 1.2 22.8 5.9 22.8 11.6C22.8 17.3 17.9 21.9 12 21.9C11.3 21.9 10.6 21.8 9.9 21.7C9.6 21.6 9.4 21.6 9.3 21.6C9.25426 21.6 9.18759 21.6418 9.1 21.6968C8.9961 21.762 8.86277 21.8457 8.7 21.9C7.7 22.5 6.5 22.8 5.3 22.8H5.29998C4.89998 22.8 4.39999 22.8 4 22.7C3.7 22.6 3.5 22.4 3.4 22.2C3.3 22 3.3 21.7 3.5 21.5C3.9 20.9 4.3 20.2 4.4 19.5C4.5 19.2 4.3 18.9 4.1 18.7C2.2 16.8 1.2 14.2 1.2 11.6ZM10.2 20.2C10.8 20.3 11.4 20.4 12 20.4C17.1 20.4 21.1 16.4 21.1 11.6C21.1 6.8 17 2.8 11.9 2.8C6.8 2.8 2.7 6.7 2.7 11.6C2.7 13.8 3.6 16 5.2 17.6C5.8 18.2 6 19 5.9 19.7C5.8 20.3 5.6 20.8 5.4 21.3C6.3 21.3 7.2 21 8 20.6C8.19998 20.5 8.35552 20.4111 8.48515 20.3371L8.48519 20.337C8.74445 20.1889 8.9 20.1 9.1 20.1C9.34686 20.0177 9.59372 20.0709 9.95203 20.148C10.0292 20.1646 10.1114 20.1823 10.2 20.2ZM6.99999 12C6.99999 11.4 7.39999 11 7.99999 11C8.59999 11 8.99999 11.4 8.99999 12C8.99999 12.6 8.49999 13 7.99999 13C7.49999 13 6.99999 12.6 6.99999 12ZM12 11C11.4 11 11 11.4 11 12C11 12.6 11.5 13 12 13C12.5 13 13 12.6 13 12C13 11.4 12.6 11 12 11ZM15 12C15 11.4 15.4 11 16 11C16.6 11 17 11.4 17 12C17 12.6 16.5 13 16 13C15.5 13 15 12.6 15 12Z" fill="#141B34"/>
</svg>
