<svg width="24" height="24" viewBox="0 0 24 24" fill="none" xmlns="http://www.w3.org/2000/svg">
<path fill-rule="evenodd" clip-rule="evenodd" d="M20.6 3.4C19 1.8 16.6 1.8 12 1.8C7.29999 1.8 4.99999 1.8 3.39999 3.4C1.79999 5 1.79999 7.3 1.79999 12C1.79999 16.7 1.79999 19 3.39999 20.6C4.99999 22.2 7.39999 22.2 12 22.2C16.7 22.2 19 22.2 20.6 20.6C22.2 19 22.2 16.6 22.2 12C22.2 7.3 22.2 5 20.6 3.4ZM4.39999 4.4C5.59999 3.2 7.69999 3.2 12 3.2C16.3 3.2 18.4 3.2 19.6 4.4C20.4 5.2 20.6 6.3 20.7 8.2H3.29999C3.39999 6.4 3.69999 5.2 4.39999 4.4ZM19.6 19.6C18.4 20.8 16.3 20.8 12 20.8C7.69999 20.8 5.59999 20.8 4.39999 19.6C3.19999 18.4 3.19999 16.3 3.19999 12V9.8H20.7V12C20.8 16.3 20.8 18.4 19.6 19.6ZM6.99999 7C7.59999 7 7.99999 6.6 7.99999 6C7.99999 5.4 7.59999 5 6.99999 5C6.39999 5 5.99999 5.4 5.99999 6C5.99999 6.6 6.49999 7 6.99999 7ZM12 6C12 6.6 11.6 7 11 7C10.5 7 9.99999 6.6 9.99999 6C9.99999 5.4 10.4 5 11 5C11.6 5 12 5.4 12 6ZM12 11.2C8.79999 11.2 6.19999 13.8 6.19999 17C6.19999 17.4 6.49999 17.8 6.99999 17.8C7.49999 17.8 7.79999 17.5 7.79999 17C7.79999 14.7 9.69999 12.8 12 12.8C14.3 12.8 16.2 14.7 16.2 17C16.2 17.4 16.5 17.8 17 17.8C17.5 17.8 17.8 17.5 17.8 17C17.8 13.8 15.2 11.2 12 11.2ZM10.8 16.2L12.2 14.8C12.5 14.5 12.9 14.5 13.2 14.8C13.5 15.1 13.5 15.6 13.2 15.9L11.8 17.3C11.7 17.4 11.5 17.5 11.3 17.5C11.1 17.5 10.9 17.4 10.8 17.3C10.5 17 10.5 16.5 10.8 16.2Z" fill="#141B34"/>
</svg>
