<svg width="24" height="24" viewBox="0 0 24 24" fill="none" xmlns="http://www.w3.org/2000/svg">
<path d="M21 4.8H16.5L16 3.8C15.5 2.8 15.2 2.2 14.7 1.8C14.6 1.7 14.5 1.6 14.3 1.6C13.7 1.3 13.1 1.3 12 1.3C10.8 1.3 10.2 1.3 9.60001 1.6C9.50001 1.6 9.40001 1.7 9.30001 1.8C8.80001 2.2 8.50001 2.8 8.00001 3.8L7.60001 4.8H3.00001C2.60001 4.8 2.20001 5.1 2.20001 5.6C2.20001 6.1 2.60001 6.3 3.00001 6.3H3.80001L4.40001 15.6C4.60001 18.3 4.60001 19.7 5.40001 20.8C5.80001 21.3 6.30001 21.8 6.80001 22.1C7.90001 22.8 9.30001 22.8 12 22.8C14.7 22.8 16.1 22.8 17.2 22.1C17.8 21.8 18.2 21.3 18.6 20.8C19.4 19.7 19.4 18.4 19.6 15.7L20.2 6.4H21C21.4 6.4 21.8 6.1 21.8 5.6C21.8 5.1 21.4 4.8 21 4.8ZM9.30001 4.5C9.80001 3.6 9.90001 3.2 10.2 3C10.3 3 10.3 2.9 10.4 2.9C10.7 2.8 11.1 2.8 12.1 2.8C13.1 2.8 13.5 2.8 13.7 2.9C13.8 2.9 13.8 3 13.9 3C14.1 3.2 14.3 3.6 14.7 4.4L14.9 4.7H9.20001L9.30001 4.5ZM18.1 15.5C18 17.9 17.9 19.1 17.4 19.9C17.1 20.3 16.8 20.6 16.4 20.8C15.6 21.3 14.4 21.3 12 21.3C9.60001 21.3 8.40001 21.3 7.60001 20.8C7.20001 20.6 6.90001 20.3 6.60001 19.9C6.10001 19.1 6.00001 17.9 5.90001 15.5L5.30001 6.3H18.7L18.1 15.5Z" fill="#141B34"/>
<path d="M9.00001 12.5H15C15.4 12.5 15.8 12.2 15.8 11.7C15.8 11.2 15.4 11 15 11H9.00001C8.60001 11 8.20001 11.3 8.20001 11.8C8.20001 12.3 8.60001 12.5 9.00001 12.5Z" fill="#141B34"/>
<path d="M13.5 14.9H10.5C10.1 14.9 9.70001 15.2 9.70001 15.7C9.70001 16.2 10 16.5 10.5 16.5H13.5C13.9 16.5 14.3 16.2 14.3 15.7C14.3 15.2 13.9 14.9 13.5 14.9Z" fill="#141B34"/>
</svg>
