<svg width="24" height="24" viewBox="0 0 24 24" fill="none" xmlns="http://www.w3.org/2000/svg">
<path d="M22.3 5C22 4.5 21.6 4.1 20.8 3.2C20 2.4 19.6 2 19.1 1.7C17.9 1 16.4 1.1 15.2 1.8C14.7 2.1 14.3 2.5 13.5 3.4L14.1 3.9L14.7 4.4C15.4 3.7 15.7 3.3 16 3.1C16.7 2.7 17.6 2.7 18.4 3.1C18.7 3.3 19.1 3.7 19.8 4.4C20.4 5 20.8 5.4 21 5.7C21.4 6.5 21.4 7.4 21 8.1C20.8 8.4 20.5 8.8 19.7 9.5L14.6 4.4L14.7 4.3L14.1 3.8L13.5 3.3L4.2 13.4C2.9 14.8 2.3 15.5 1.9 16.4C1.5 17.3 1.4 18.3 1.3 20.1V20.4C1.2 21.1 1.2 21.7 1.6 22.1C2 22.6 2.5 22.6 3.3 22.6H3.6C4.3 22.6 4.8 22.6 5.3 22.6C6.4 22.6 7.2 22.5 7.9 22.2C9 21.8 9.8 21 11.3 19.5L20.7 10.4C21.5 9.6 22 9.2 22.2 8.7C22.9 7.7 22.9 6.2 22.3 5ZM10.2 18.6C8.8 20 8.1 20.7 7.3 21C6.5 21.3 5.5 21.3 3.6 21.2H3.3C3.1 21.2 2.9 21.2 2.8 21.2C2.8 21.1 2.8 20.8 2.8 20.6V20.2C2.9 18.6 3 17.7 3.3 17C3.6 16.3 4.2 15.7 5.3 14.4L13.5 5.5L18.5 10.5L10.2 18.6Z" fill="#141B34"/>
</svg>
