<svg width="24" height="24" viewBox="0 0 24 24" fill="none" xmlns="http://www.w3.org/2000/svg">
<path d="M10.8 21.8C10.6 21.8 10.4 21.8 10.2 21.7C9.9 21.6 9.7 21.4 9.5 21.2C9.3 21 9.2 20.7 9.2 20.4C9.1 19.3 8.8 16.9 8.5 13.4C8.5 13.3 8.5 13.2 8.4 13.2C6.4 11.7 4.6 9.9 3.1 8C2.7 7.5 2.5 7 2.4 6.5C2.2 4.7 2.1 3.8 2.8 3C3.5 2.2 4.5 2.2 6.3 2.2H17.8C19.6 2.2 20.6 2.2 21.3 3C22 3.8 21.9 4.7 21.6 6.5C21.6 7 21.4 7.5 21 8C19.4 9.9 17.6 11.7 15.6 13.2C15.5 13.3 15.5 13.3 15.5 13.4C15.2 16.1 15 17.7 14.9 18.4C14.7 19.7 13.4 20.4 12.4 21C12.1 21.2 11.9 21.3 11.7 21.4C11.4 21.6 11.1 21.7 10.8 21.8ZM6.2 3.8C5 3.8 4.1 3.8 3.9 4C3.7 4.3 3.8 5 3.9 6.3C3.9 6.6 4 6.8 4.2 7C5.7 8.8 7.4 10.5 9.3 11.9C9.5 12.1 9.7 12.2 9.8 12.5C9.9 12.7 10 13 10 13.2C10.3 16.6 10.5 19 10.7 20.1C10.7 20.2 10.8 20.3 10.8 20.3C11 20.1 11.3 20 11.6 19.8C12.4 19.3 13.3 18.8 13.4 18.2C13.5 17.4 13.8 16 14 13.3C14 13.1 14.1 12.8 14.2 12.6C14.3 12.4 14.5 12.2 14.7 12C16.6 10.6 18.3 8.9 19.8 7.1C20 6.9 20.1 6.7 20.1 6.4C20.2 5.2 20.4 4.4 20.1 4.1C19.8 3.8 19 3.8 17.8 3.8H6.2Z" fill="#141B34"/>
</svg>
