<svg width="24" height="24" viewBox="0 0 24 24" fill="none" xmlns="http://www.w3.org/2000/svg">
<path d="M10.79 21.75C10.5798 21.7502 10.3719 21.7059 10.18 21.62C9.91291 21.4977 9.68113 21.3097 9.50627 21.0737C9.33142 20.8376 9.21917 20.5611 9.18 20.27C9.05 19.16 8.79 16.79 8.5 13.32C8.49419 13.2399 8.4585 13.165 8.4 13.11C6.42286 11.5954 4.6276 9.85721 3.05 7.93C2.69095 7.52314 2.47342 7.01089 2.43 6.47C2.2 4.73 2.08 3.77 2.77 3C3.46 2.23 4.44 2.25 6.23 2.25H17.77C19.56 2.25 20.54 2.25 21.23 3C21.92 3.75 21.8 4.73 21.57 6.47C21.5428 7.00549 21.3428 7.51775 21 7.93C19.4233 9.86492 17.6204 11.604 15.63 13.11C15.5716 13.1691 15.5362 13.2471 15.53 13.33C15.28 16.06 15.05 17.58 14.9 18.33C14.66 19.61 13.4 20.33 12.39 20.98C12.14 21.14 11.91 21.28 11.71 21.42C11.4496 21.631 11.1252 21.7474 10.79 21.75ZM6.23 3.75C4.96 3.75 4.12 3.75 3.88 4.01C3.64 4.27 3.76 5.01 3.88 6.28C3.8977 6.5504 4.01115 6.80566 4.2 7C5.7072 8.83816 7.42192 10.4958 9.31 11.94C9.50449 12.0922 9.66595 12.2824 9.78458 12.499C9.9032 12.7157 9.9765 12.9542 10 13.2C10.28 16.65 10.54 19 10.67 20.09C10.67 20.18 10.75 20.25 10.79 20.25C11.01 20.09 11.27 19.92 11.55 19.75C12.31 19.29 13.25 18.75 13.37 18.11C13.51 17.34 13.73 15.87 13.97 13.19C13.9938 12.9403 14.0682 12.6981 14.1885 12.4781C14.3088 12.258 14.4727 12.0648 14.67 11.91C16.5673 10.481 18.2892 8.8329 19.8 7C19.9729 6.81006 20.0753 6.56645 20.09 6.31C20.24 5.09 20.34 4.31 20.09 4.04C19.84 3.77 19 3.75 17.77 3.75H6.23Z" fill="#141B34"/>
</svg>
