<svg width="24" height="24" viewBox="0 0 24 24" fill="none" xmlns="http://www.w3.org/2000/svg">
<path d="M20.6 3.4C19 1.8 16.6 1.8 12 1.8C7.29999 1.8 4.99999 1.8 3.39999 3.4C1.79999 5 1.79999 7.3 1.79999 12C1.79999 16.7 1.79999 19 3.39999 20.6C4.99999 22.2 7.39999 22.2 12 22.2C16.7 22.2 19 22.2 20.6 20.6C22.2 19 22.2 16.6 22.2 12C22.3 7.3 22.3 5 20.6 3.4ZM19.6 19.6C18.5 20.7 16.5 20.8 12.8 20.8V14.8H15C15.4 14.8 15.8 14.5 15.8 14C15.8 13.5 15.5 13.2 15 13.2H12.7V12C12.7 11 12.7 10.4 12.8 9.9C12.9 9.4 13 9.2 13.1 9.1C13.2 9 13.4 8.9 13.9 8.8C14.4 8.8 15 8.8 16 8.8H17C17.4 8.8 17.8 8.5 17.8 8C17.8 7.5 17.4 7.3 17 7.3H16C15.1 7.3 14.3 7.3 13.7 7.4C13.1 7.5 12.5 7.7 12 8.1C11.5 8.6 11.4 9.1 11.3 9.8C11.2 10.4 11.2 11.2 11.2 12.1V13.4H9.99999C9.59999 13.4 9.19999 13.7 9.19999 14.2C9.19999 14.7 9.49999 15 9.99999 15H11.3V21C7.49999 21 5.59999 20.9 4.49999 19.8C3.29999 18.6 3.29999 16.5 3.29999 12.2C3.29999 7.9 3.29999 5.8 4.49999 4.6C5.59999 3.3 7.69999 3.3 12 3.3C16.3 3.3 18.4 3.3 19.6 4.5C20.8 5.7 20.8 7.8 20.8 12.1C20.8 16.4 20.8 18.4 19.6 19.6Z" fill="#141B34"/>
</svg>
