<svg width="24" height="25" viewBox="0 0 24 25" fill="none" xmlns="http://www.w3.org/2000/svg">
<g id="cd-image-upload">
<path id="Vector" d="M5 21.5C9.20998 16.7487 13.9412 10.4475 21 15.1734" stroke="#3E949A" stroke-width="1.5"/>
<path id="Vector_2" d="M17 5C17.4915 4.4943 18.7998 2.5 19.5 2.5M19.5 2.5C20.2002 2.5 21.5085 4.4943 22 5M19.5 2.5V10.5" stroke="#3E949A" stroke-width="1.5" stroke-linecap="round" stroke-linejoin="round"/>
<path id="Vector_3" d="M20.9999 13.5C20.998 17.647 20.9472 19.7703 19.6088 21.1088C18.2175 22.5 15.9783 22.5 11.5 22.5C7.02166 22.5 4.78249 22.5 3.39124 21.1088C2 19.7175 2 17.4783 2 13C2 8.52166 2 6.28249 3.39124 4.89124C4.78249 3.5 7.02166 3.5 11.5 3.5C11.6699 3.5 14 3.50008 14 3.50008" stroke="#3E949A" stroke-width="1.5" stroke-linecap="round"/>
</g>
</svg>
