<svg width="24" height="24" viewBox="0 0 24 24" fill="none" xmlns="http://www.w3.org/2000/svg">
<path d="M12 1.3C6.1 1.3 1.3 6.1 1.3 12C1.3 17.9 6.1 22.8 12 22.8C17.9 22.8 22.8 17.9 22.8 12C22.8 6.1 17.9 1.3 12 1.3ZM21.2 11.3H16.7C16.6 8.2 15.9 5.1 14.8 3.2C18.3 4.3 20.9 7.5 21.2 11.3ZM12 21.3C10.5 21.3 8.9 17.7 8.8 12.8H15.3C15.1 17.7 13.5 21.3 12 21.3ZM8.8 11.3C9 6.4 10.6 2.8 12 2.8C13.4 2.8 15.1 6.4 15.2 11.3H8.8ZM9.2 3.2C8 5.1 7.4 8.2 7.3 11.3H2.8C3.1 7.5 5.7 4.3 9.2 3.2ZM2.8 12.8H7.3C7.4 15.9 8.1 19 9.2 20.9C5.7 19.7 3.1 16.5 2.8 12.8ZM14.8 20.8C16 18.9 16.6 15.8 16.7 12.7H21.2C20.9 16.5 18.3 19.7 14.8 20.8Z" fill="#141B34"/>
</svg>
