<svg width="24" height="24" viewBox="0 0 24 24" fill="none" xmlns="http://www.w3.org/2000/svg">
<path d="M20.6 3.4C19 1.8 16.6 1.8 12 1.8C7.29999 1.8 4.99999 1.8 3.39999 3.4C1.79999 5 1.79999 7.3 1.79999 12C1.79999 16.7 1.79999 19 3.39999 20.6C4.99999 22.2 7.39999 22.2 12 22.2C16.7 22.2 19 22.2 20.6 20.6C22.2 19 22.2 16.6 22.2 12C22.3 7.3 22.3 5 20.6 3.4ZM19.6 19.6C18.4 20.8 16.3 20.8 12 20.8C7.69999 20.8 5.59999 20.8 4.39999 19.6C3.19999 18.4 3.19999 16.3 3.19999 12C3.19999 7.7 3.19999 5.6 4.39999 4.4C5.59999 3.3 7.69999 3.3 12 3.3C16.3 3.3 18.4 3.3 19.6 4.5C20.8 5.7 20.8 7.8 20.8 12.1C20.8 16.4 20.8 18.4 19.6 19.6Z" fill="#141B34"/>
<path d="M12 6.8C9.10001 6.8 6.70001 9.2 6.70001 12.1C6.70001 15 9.10001 17.4 12 17.4C14.9 17.4 17.3 15 17.3 12.1C17.3 9.1 14.9 6.8 12 6.8ZM12 15.8C9.90001 15.8 8.20001 14.1 8.20001 12C8.20001 9.9 9.90001 8.2 12 8.2C14.1 8.2 15.8 9.9 15.8 12C15.8 14.1 14.1 15.8 12 15.8Z" fill="#141B34"/>
<path d="M17.5 5.5C16.9 5.5 16.5 5.9 16.5 6.5C16.5 7.1 16.9 7.5 17.5 7.5C18.1 7.5 18.5 7.1 18.5 6.5C18.5 5.9 18.1 5.5 17.5 5.5Z" fill="#141B34"/>
</svg>
