<svg width="24" height="24" viewBox="0 0 24 24" fill="none" xmlns="http://www.w3.org/2000/svg">
<path d="M22.5 4C22.4 3.9 22.2 3.7 22 3.4C21 2.2 20.3 1.3 19.5 1.3C18.7 1.3 17.9 2.1 17 3.4C16.8 3.7 16.6 3.9 16.5 4C16.2 4.3 16.2 4.8 16.5 5.1C16.8 5.4 17.3 5.4 17.6 5.1C17.7 5 18 4.7 18.2 4.4C18.3 4.2 18.6 3.9 18.8 3.6V10C18.8 10.4 19.1 10.8 19.6 10.8C20.1 10.8 20.4 10.5 20.4 10V3.5C20.6 3.8 20.9 4.1 21 4.3C21.2 4.6 21.5 4.9 21.6 5C21.9 5.3 22.4 5.3 22.7 5C22.8 4.7 22.8 4.3 22.5 4Z" fill="#141B34"/>
<path d="M21 12.3C20.6 12.3 20.2 12.6 20.2 13C20.2 13.1 20.2 13.2 20.2 13.4C13.7 9.9 9 15.3 5.2 19.6L4.4 20.5C4.2 20.4 4 20.2 3.9 20.1C2.7 18.9 2.7 16.8 2.7 12.5C2.7 8.2 2.7 6.1 3.9 4.9C5.1 3.7 7.2 3.7 11.5 3.7H14C14.4 3.7 14.8 3.4 14.8 2.9C14.8 2.4 14.4 2.3 14 2.3H11.5C6.8 2.3 4.5 2.3 2.9 3.9C1.3 5.5 1.3 7.9 1.3 12.5C1.3 17.2 1.3 19.5 2.9 21.1C4.5 22.7 6.9 22.7 11.5 22.7C16.2 22.7 18.5 22.7 20.1 21.1C21.7 19.5 21.7 17 21.7 13C21.8 12.6 21.4 12.3 21 12.3ZM19.1 20.1C17.9 21.3 15.8 21.3 11.5 21.3C9 21.3 7.3 21.3 6 21.1L6.4 20.6C10.3 16.1 14.4 11.5 20.2 15.1C20.2 17.7 20 19.2 19.1 20.1Z" fill="#141B34"/>
</svg>
