<svg width="24" height="24" viewBox="0 0 24 24" fill="none" xmlns="http://www.w3.org/2000/svg">
<path d="M12 22.8C6.09999 22.8 1.29999 17.9 1.29999 12C1.29999 6.1 6.09999 1.3 12 1.3C17.9 1.3 22.8 6.1 22.8 12C22.8 17.9 17.9 22.8 12 22.8ZM12 2.8C6.89999 2.8 2.69999 6.9 2.69999 12.1C2.69999 17.3 6.79999 21.4 12 21.4C17.2 21.4 21.3 17.3 21.3 12.1C21.3 6.9 17.1 2.8 12 2.8Z" fill="#141B34"/>
<path d="M12.2 17.8C11.8 17.8 11.4 17.5 11.4 17V12C11.4 11.9 11.4 11.8 11.4 11.8C11.3 11.8 11.2 11.8 11.2 11.8C10.8 11.8 10.4 11.5 10.4 11C10.4 10.5 10.7 10.2 11.2 10.2C11.8 10.2 12.2 10.2 12.6 10.6C13 11 13 11.4 13 12V17C13 17.4 12.7 17.8 12.2 17.8Z" fill="#141B34"/>
<path d="M12 9C11.4 9 11 8.6 11 8C11 7.4 11.4 7 12 7C12.6 7 13 7.4 13 8C13 8.6 12.6 9 12 9Z" fill="#141B34"/>
</svg>
