<svg width="24" height="24" viewBox="0 0 24 24" fill="none" xmlns="http://www.w3.org/2000/svg">
<path d="M12 22.8C11.2 22.8 10.4 22.5 9.9 22C9.6 21.7 9.20001 21.4 8.9 21.1C5.1 17.5 0.400005 13.1 3.00001 7.1C4.50001 3.6 8.1 1.3 12 1.3C15.9 1.3 19.5 3.6 21 7.1C23.6 13.2 18.9 17.6 15.1 21.1L14.2 22C13.6 22.5 12.8 22.8 12 22.8ZM12 2.8C8.7 2.8 5.60001 4.8 4.40001 7.7C2.20001 12.8 6.1 16.4 9.9 19.9C10.2 20.2 10.6 20.5 10.9 20.8C11.5 21.4 12.5 21.4 13.1 20.8L14 20C17.8 16.5 21.8 12.8 19.6 7.7C18.4 4.7 15.3 2.8 12 2.8Z" fill="#141B34"/>
<path d="M12 15.3C9.70001 15.3 7.70001 13.4 7.70001 11C7.70001 8.7 9.60001 6.7 12 6.7C14.3 6.7 16.3 8.6 16.3 11C16.3 13.3 14.3 15.3 12 15.3ZM12 8.3C10.5 8.3 9.20001 9.5 9.20001 11.1C9.20001 12.7 10.4 13.9 12 13.9C13.6 13.9 14.8 12.7 14.8 11.1C14.8 9.5 13.5 8.3 12 8.3Z" fill="#141B34"/>
</svg>
