<svg width="24" height="24" viewBox="0 0 24 24" fill="none" xmlns="http://www.w3.org/2000/svg">
<path d="M12 19.2C9.20002 19.2 6.50002 18.7 4.20002 17.8C2.50002 17.1 1.60002 15.7 1.80002 14.2C1.90002 13.3 2.40002 12.7 2.90002 12.1C3.00002 12 3.10002 11.9 3.20002 11.8C3.70002 11.1 3.80002 10.2 3.80002 9.3C3.80002 4.9 7.50003 1.3 12.1 1.3C16.7 1.3 20.4 4.9 20.4 9.3C20.4 10.2 20.4 11.1 21 11.8C21.1 11.9 21.2 12.1 21.3 12.2C21.8 12.8 22.3 13.5 22.4 14.3C22.6 15.8 21.7 17.2 20 17.9C17.5 18.8 14.8 19.2 12 19.2ZM3.30002 14.5C3.10002 15.7 4.20002 16.3 4.70002 16.4C9.00002 18.1 15 18.1 19.3 16.4C19.8 16.2 20.9 15.6 20.7 14.5C20.6 14 20.3 13.5 19.9 13C19.8 12.9 19.7 12.7 19.6 12.6C18.8 11.5 18.8 10.3 18.8 9.3C18.8 5.7 15.8 2.8 12 2.8C8.30002 2.8 5.20002 5.7 5.20002 9.3C5.20002 10.4 5.10002 11.6 4.40002 12.6C4.30002 12.7 4.20002 12.9 4.10002 13C3.70002 13.6 3.30002 14 3.30002 14.5Z" fill="#141B34"/>
<path d="M12 22.8C10.7 22.8 9.50001 22.4 8.50001 21.6C8.20001 21.3 8.10001 20.9 8.40001 20.5C8.70001 20.2 9.10001 20.1 9.50001 20.4C10.9 21.5 13.2 21.5 14.6 20.4C14.9 20.1 15.4 20.2 15.7 20.5C16 20.8 15.9 21.3 15.6 21.6C14.5 22.3 13.3 22.8 12 22.8Z" fill="#141B34"/>
</svg>
