<svg width="24" height="24" viewBox="0 0 24 24" fill="none" xmlns="http://www.w3.org/2000/svg">
<path d="M20.6 3.4C19 1.8 16.6 1.8 12 1.8C7.3 1.8 5 1.8 3.4 3.4C1.8 5 1.8 7.3 1.8 12C1.8 16.7 1.8 19 3.4 20.6C5 22.2 7.4 22.2 12 22.2C16.7 22.2 19 22.2 20.6 20.6C22.2 19 22.2 16.6 22.2 12C22.2 7.3 22.2 5 20.6 3.4ZM4.4 4.4C5.6 3.2 7.7 3.2 12 3.2C16.3 3.2 18.4 3.2 19.6 4.4C20.8 5.6 20.8 7.7 20.8 12C20.8 12.3 20.8 12.5 20.8 12.8H16.6C15.6 12.8 14.6 13.5 14.1 14.7C13.7 15.5 13 15.8 12.1 15.8C11.1 15.8 10.4 15.4 10.1 14.7C9.5 13.5 8.6 12.8 7.6 12.8H3.3C3.3 12.6 3.3 12.3 3.3 12C3.2 7.7 3.2 5.6 4.4 4.4ZM19.6 19.6C18.4 20.8 16.3 20.8 12 20.8C7.7 20.8 5.6 20.8 4.4 19.6C3.5 18.7 3.3 17.1 3.2 14.3H7.4C7.9 14.3 8.4 14.8 8.6 15.3C9.2 16.6 10.4 17.3 12 17.3C13.5 17.3 14.7 16.6 15.4 15.3C15.6 14.8 16.1 14.3 16.6 14.3H20.8C20.7 17 20.5 18.6 19.6 19.6Z" fill="#141B34"/>
</svg>
