<svg width="24" height="24" viewBox="0 0 24 24" fill="none" xmlns="http://www.w3.org/2000/svg">
<path d="M22.8 8V7.9C22.8 7.8 22.8 7.8 22.8 7.7L21.8 5.4C21 3.5 20.6 2.5 19.6 1.9C18.7 1.3 17.5 1.3 15.5 1.3H8.5C6.5 1.3 5.4 1.3 4.4 1.9C3.5 2.5 3 3.5 2.3 5.4L1.3 7.7C1.3 7.8 1.3 7.8 1.3 7.9V8V13.4C1.3 17.6 1.3 19.8 2.8 21.3C4.3 22.8 6.5 22.8 10.9 22.8H13.1C17.5 22.8 19.7 22.8 21.2 21.3C22.7 19.8 22.7 17.7 22.7 13.4V8C22.8 8 22.8 8 22.8 8ZM18.7 3.1C19.2 3.5 19.6 4.2 20.3 6L20.8 7.3H12.7V2.8H15.5C17.3 2.8 18.2 2.8 18.7 3.1ZM5.3 3.1C5.9 2.7 6.8 2.7 8.5 2.7H11.3V7.2H3.1L3.7 6C4.4 4.2 4.7 3.5 5.3 3.1ZM21.3 13.4C21.3 17.2 21.3 19.1 20.2 20.2C19.1 21.2 17.1 21.2 13.1 21.2H10.9C6.9 21.2 4.9 21.2 3.8 20.2C2.7 19.2 2.7 17.2 2.7 13.4V8.8H21.2V13.4H21.3Z" fill="#141B34"/>
<path d="M9.3 12C9.3 12.4 9.6 12.8 10.1 12.8H14.1C14.5 12.8 14.9 12.5 14.9 12C14.9 11.5 14.6 11.2 14.1 11.2H10.1C9.6 11.3 9.3 11.6 9.3 12Z" fill="#141B34"/>
</svg>
