<svg width="24" height="24" viewBox="0 0 24 24" fill="none" xmlns="http://www.w3.org/2000/svg">
<path d="M8 20.3C7.7 20.3 7.5 20.3 7.2 20.2C6.5 20 5.9 19.7 5.4 19.2C4.2 18 4.2 16 4.2 12.1C4.2 8.2 4.2 6.2 5.4 5C5.9 4.5 6.5 4.2 7.2 4C8.8 3.5 10.5 4.5 13.9 6.5C17.4 8.5 19.2 9.5 19.6 11.2C19.8 11.9 19.8 12.6 19.6 13.3C19.2 14.9 17.4 16 13.9 17.9C11 19.3 9.4 20.3 8 20.3ZM8 5.3C7.9 5.3 7.7 5.3 7.6 5.4C7.2 5.4 6.8 5.6 6.5 5.9C5.8 6.7 5.8 8.6 5.8 12C5.8 15.4 5.8 17.3 6.5 18.1C6.8 18.4 7.2 18.6 7.6 18.7C8.6 19 10.2 18.1 13.2 16.4C16.3 14.7 17.9 13.7 18.2 12.7C18.3 12.3 18.3 11.8 18.2 11.4C17.9 10.4 16.2 9.4 13.2 7.7C10.6 6.1 9 5.3 8 5.3Z" fill="#141B34"/>
</svg>
