<svg width="24" height="24" viewBox="0 0 24 24" fill="none" xmlns="http://www.w3.org/2000/svg">
<path d="M8.79999 23.8C8.49999 23.8 8.29999 23.7 8.09999 23.4L7.49999 22.3C6.99999 21.3 6.69999 20.7 7.09999 20.2C7.49999 19.7 8.19999 19.8 9.29999 20.2C10.1 20.4 11 20.6 11.9 20.6C16.7 20.6 20.7 16.8 20.7 12.1C20.7 10.6 20.3 9.2 19.5 7.9C19.3 7.5 19.4 7.1 19.8 6.9C20.2 6.7 20.6 6.8 20.8 7.2C21.7 8.7 22.2 10.4 22.2 12.2C22.2 17.7 17.6 22.2 11.9 22.2C10.9 22.2 9.89999 22.1 8.89999 21.8H8.79999L9.39999 22.9C9.59999 23.3 9.49999 23.7 9.09999 23.9C9.09999 23.7 8.99999 23.8 8.79999 23.8ZM3.79999 17.4C3.49999 17.4 3.29999 17.3 3.19999 17C2.29999 15.5 1.79999 13.8 1.79999 12C1.79999 6.5 6.29999 2 12 2C13 2 14 2.1 15 2.4H15.1L14.5 1.3C14.3 0.900001 14.4 0.500001 14.8 0.300001C15.2 0.100001 15.6 0.200001 15.8 0.600001L16.4 1.7C16.9 2.7 17.2 3.3 16.8 3.8C16.4 4.3 15.7 4.2 14.6 3.8C13.8 3.6 12.9 3.4 12 3.4C7.19999 3.4 3.19999 7.2 3.19999 11.9C3.19999 13.4 3.59999 14.8 4.39999 16.1C4.59999 16.5 4.49999 16.9 4.09999 17.1C3.99999 17.3 3.89999 17.4 3.79999 17.4Z" fill="#141B34"/>
</svg>
