<svg width="24" height="24" viewBox="0 0 24 24" fill="none" xmlns="http://www.w3.org/2000/svg">
<path d="M22.5 21.5L18.4 17.4C19.9 15.7 20.8 13.5 20.8 11.1C20.8 5.7 16.4 1.3 11 1.3C5.6 1.3 1.3 5.6 1.3 11C1.3 16.4 5.7 20.8 11.1 20.8C13.5 20.8 15.7 19.9 17.4 18.4L21.5 22.5C21.6 22.6 21.8 22.7 22 22.7C22.2 22.7 22.4 22.6 22.5 22.5C22.8 22.2 22.8 21.8 22.5 21.5ZM2.8 11C2.8 6.5 6.5 2.7 11.1 2.7C15.7 2.7 19.4 6.4 19.4 11C19.4 15.6 15.7 19.3 11.1 19.3C6.5 19.3 2.8 15.5 2.8 11Z" fill="#141B34"/>
</svg>
