<svg width="24" height="24" viewBox="0 0 24 24" fill="none" xmlns="http://www.w3.org/2000/svg">
<path d="M20.6 12.9C20.5 12.7 20.3 12.3 20.3 12C20.3 11.7 20.4 11.3 20.5 11.1L21.5 9.9C22 9.3 22.4 8.9 22.4 8.4C22.5 7.8 22.2 7.4 21.8 6.7L21.1 7.1L22 6.8L21.5 5.9C21.1 5.2 20.8 4.7 20.3 4.5C19.7 4.3 19.2 4.4 18.4 4.6L17.2 5C16.9 5.1 16.6 5 16.4 4.9L16 4.7C15.8 4.6 15.6 4.3 15.5 4.1L15.2 3.1C15 2.4 14.8 1.9 14.3 1.6C13.8 1.3 13.3 1.3 12.6 1.3H11.5C10.7 1.3 10.2 1.3 9.79999 1.6C9.29999 1.9 9.19999 2.4 8.89999 3.1L8.59999 4.1C8.49999 4.4 8.29999 4.6 8.09999 4.7L7.79999 4.9C7.49999 5 7.19999 5 6.99999 5L5.79999 4.6C4.99999 4.4 4.49999 4.3 3.89999 4.5C3.29999 4.7 3.09999 5.2 2.69999 5.9L2.19999 6.8C1.79999 7.4 1.49999 7.9 1.59999 8.5C1.59999 9 1.99999 9.4 2.49999 10L3.49999 11.1C3.59999 11.3 3.79999 11.7 3.79999 12C3.79999 12.4 3.69999 12.7 3.59999 12.9L2.59999 14.1C2.09999 14.7 1.69999 15.1 1.69999 15.6C1.59999 16.2 1.89999 16.6 2.29999 17.3L2.79999 18.2C3.19999 18.9 3.49999 19.4 3.99999 19.6C4.59999 19.8 5.09999 19.7 5.89999 19.4L6.99999 19C7.29999 18.9 7.59999 19 7.79999 19.1L8.09999 19.3C8.29999 19.4 8.49999 19.7 8.59999 19.9L8.89999 20.9C9.09999 21.6 9.29999 22.1 9.79999 22.4C10.3 22.7 10.8 22.7 11.5 22.7H12.6C13.4 22.7 13.9 22.7 14.3 22.4C14.8 22.1 14.9 21.6 15.2 20.9L15.5 19.9C15.6 19.7 15.8 19.4 16 19.3L16.3 19.1C16.6 19 16.9 18.9 17.1 19L18.3 19.3C19.1 19.5 19.6 19.7 20.2 19.4C20.8 19.2 21 18.7 21.4 18L21.9 17.1C22.3 16.4 22.5 16 22.5 15.4C22.4 14.8 22.1 14.5 21.6 13.9L20.6 12.9ZM20.7 16.5L20.2 17.4C20 17.7 19.8 18.2 19.7 18.2C19.6 18.2 19.2 18.1 18.8 18L17.5 17.6C16.9 17.5 16.2 17.5 15.6 17.8L15.2 18C14.7 18.3 14.3 18.8 14.1 19.4L13.8 20.4C13.7 20.7 13.5 21.2 13.5 21.2C13.4 21.2 13 21.2 12.6 21.2H11.5C11.1 21.2 10.7 21.2 10.6 21.2C10.5 21.2 10.4 20.7 10.3 20.4L9.99999 19.4C9.79999 18.8 9.39999 18.4 8.89999 18.1L8.49999 17.9C8.09999 17.7 7.69999 17.6 7.29999 17.6C7.09999 17.6 6.89999 17.6 6.59999 17.7L5.39999 18C4.99999 18 4.59999 18.2 4.49999 18.1C4.39999 18.1 4.19999 17.6 3.99999 17.3L3.49999 16.4C3.29999 16.1 3.09999 15.7 3.09999 15.6C3.09999 15.5 3.39999 15.2 3.59999 14.9L4.69999 13.7C4.99999 13.4 5.29999 12.7 5.29999 12C5.29999 11.3 5.09999 10.6 4.69999 10.1L3.59999 9C3.39999 8.7 3.09999 8.4 3.09999 8.3C3.09999 8.2 3.29999 7.8 3.49999 7.5L3.99999 6.7C4.19999 6.4 4.39999 6 4.49999 5.9C4.59999 5.9 4.99999 6 5.39999 6.1L6.69999 6.5C7.29999 6.6 7.99999 6.6 8.59999 6.2L8.89999 6C9.39999 5.7 9.79999 5.2 9.99999 4.6L10.3 3.6C10.4 3.2 10.5 2.9 10.6 2.8C10.7 2.8 11.1 2.8 11.5 2.8H12.6C13 2.8 13.4 2.8 13.5 2.8C13.6 2.9 13.7 3.3 13.8 3.6L14.1 4.6C14.3 5.2 14.7 5.6 15.2 6L15.6 6.2C16.2 6.5 16.8 6.6 17.5 6.4L18.7 6.1C19.1 6 19.5 5.9 19.6 5.9C19.7 5.9 19.9 6.3 20.1 6.7L20.6 7.6C20.8 7.9 21 8.3 21 8.4C21 8.5 20.7 8.8 20.5 9.1L19.4 10.3C19 10.8 18.8 11.5 18.8 12.1C18.8 12.8 19 13.5 19.4 14L20.4 15.2C20.6 15.5 20.9 15.8 20.9 15.9C21.1 15.8 20.9 16.2 20.7 16.5Z" fill="#141B34"/>
<path d="M12 7.8C9.69999 7.8 7.79999 9.7 7.79999 12C7.79999 14.3 9.69999 16.2 12 16.2C14.3 16.2 16.2 14.3 16.2 12C16.3 9.7 14.4 7.8 12 7.8ZM12 14.8C10.5 14.8 9.19999 13.6 9.19999 12C9.19999 10.4 10.4 9.2 12 9.2C13.6 9.2 14.8 10.4 14.8 12C14.8 13.6 13.5 14.8 12 14.8Z" fill="#141B34"/>
</svg>
