<svg width="24" height="24" viewBox="0 0 24 24" fill="none" xmlns="http://www.w3.org/2000/svg">
<path d="M8.00001 20.8C5.60001 20.8 3.50001 20.3 1.60001 19.2C1.30001 19 1.20001 18.7 1.20001 18.4C1.30001 18.1 1.50001 17.8 1.90001 17.8C3.50001 17.6 5.10001 17.1 5.60001 16.7C2.60001 13.4 1.50001 8.4 2.70001 4C2.80001 3.7 3.00001 3.5 3.30001 3.5C3.60001 3.5 3.90001 3.6 4.00001 3.8C5.70001 6.5 8.40001 8.2 11.1 8.3C11.1 7.2 11.4 6.1 12.1 5.2C13 4 14.4 3.4 15.8 3.4C16.8 3.4 17.8 3.7 18.7 4.4L21.7 3.9C22 3.9 22.3 4 22.4 4.2C22.6 4.4 22.6 4.7 22.5 5L20.6 8.8C20.4 15.4 14.8 20.8 8.00001 20.8ZM4.50001 18.8C5.60001 19.1 6.80001 19.3 8.00001 19.3C14.1 19.3 19 14.5 19.2 8.5C19.2 8.4 19.2 8.3 19.3 8.2L20.6 5.6L18.7 5.9C18.5 5.9 18.3 5.9 18.1 5.7C17.6 5 16.8 4.8 16 4.8C15 4.8 14.1 5.3 13.5 6.1C12.9 6.9 12.6 7.9 12.9 8.9C13 9.1 12.9 9.3 12.8 9.5C12.7 9.7 12.5 9.8 12.2 9.8C9.20001 10 6.10001 8.6 3.90001 6C3.40001 9.5 4.60001 13.5 7.00001 15.9C7.10001 16 7.20001 16.2 7.20001 16.4C7.30001 17.7 5.80001 18.4 4.50001 18.8Z" fill="#141B34"/>
</svg>
