<svg width="24" height="24" viewBox="0 0 24 24" fill="none" xmlns="http://www.w3.org/2000/svg">
<path d="M21.4 7.2C20.4 5 19.9 3.9 18.8 3.1C18.7 3 18.6 3 18.4 2.9C17.3 2.3 16 2.3 13.5 2.3H13C9.89999 2.3 8.39999 2.3 7.29999 3.4C7.19999 3.5 7.09999 3.6 6.99999 3.8C6.29999 2.9 5.19999 2.3 3.99999 2.3C2.49999 2.3 1.29999 3.5 1.29999 5V11C1.29999 12.5 2.49999 13.8 4.09999 13.8C5.09999 13.8 5.89999 13.4 6.59999 12.8C6.59999 12.9 6.59999 12.9 6.69999 13C6.99999 13.8 7.49999 14.4 8.59999 15.5L12.7 20C12.8 20.2 12.9 20.2 13 20.3C13.3 20.6 13.8 20.7 14.2 20.7C14.7 20.7 15.2 20.5 15.5 20.1C15.6 20 15.6 20 15.7 19.8C15.8 19.6 15.9 19.5 16 19.4C16.6 18.4 16.8 17.1 16.5 15.9C16.5 15.8 16.4 15.7 16.4 15.4L16.1 14.5C16 14.1 15.9 13.7 15.9 13.6C15.9 13.5 16 13.5 16 13.5C16.1 13.5 16.6 13.5 17 13.5H17.4C20.2 13.5 21.6 13.5 22.4 12.5C22.5 12.4 22.6 12.3 22.7 12.1C23.1 10.9 22.6 9.7 21.4 7.2ZM6.29999 10C6.29999 11.2 5.29999 12.3 3.99999 12.3C3.29999 12.3 2.69999 11.7 2.69999 11V5C2.69999 4.3 3.29999 3.7 3.99999 3.7C5.19999 3.7 6.29999 4.7 6.29999 6V8.9V9.9V10ZM21.2 11.4C21.2 11.5 21.1 11.5 21.1 11.6C20.7 12 19.4 12 17.2 12H16.8C15.9 12 15.4 12 15 12.3C14.6 12.5 14.4 12.9 14.3 13.3C14.1 13.8 14.3 14.2 14.5 15.1L14.8 16C14.9 16.2 14.9 16.3 14.9 16.4C15.1 17.2 15 18 14.5 18.7C14.4 18.8 14.4 18.9 14.2 19.1C14.2 19.2 14.1 19.2 14.1 19.2C14 19.3 13.8 19.3 13.7 19.2L13.6 19.1L9.49999 14.6C8.59999 13.6 8.09999 13.1 7.89999 12.5C7.69999 12 7.69999 11.3 7.69999 9.9V8.9C7.69999 6.2 7.69999 5 8.39999 4.4C9.09999 3.8 10.4 3.8 13.1 3.8H13.6C15.8 3.8 16.9 3.8 17.7 4.2C17.8 4.2 17.8 4.3 17.9 4.3C18.6 4.8 19.1 5.8 20 7.8C20.9 9.7 21.5 10.9 21.2 11.4Z" fill="#141B34"/>
</svg>
