<svg width="24" height="24" viewBox="0 0 24 24" fill="none" xmlns="http://www.w3.org/2000/svg">
<path d="M22.5 10.9C22.4 10.8 22.3 10.6 22.2 10.5C21.4 9.5 20 9.5 17.2 9.5H16.8C16.4 9.5 15.9 9.5 15.8 9.5L15.7 9.4C15.7 9.3 15.8 8.9 15.9 8.5L16.2 7.6C16.3 7.4 16.3 7.2 16.3 7.1C16.6 5.9 16.4 4.7 15.8 3.6C15.7 3.5 15.7 3.4 15.5 3.2C15.4 3 15.3 3 15.3 2.9C14.7 2.2 13.5 2.1 12.8 2.7C12.7 2.8 12.7 2.8 12.5 3L8.40001 7.5C7.40001 8.6 6.80001 9.2 6.50001 10C6.50001 10.1 6.50001 10.1 6.40001 10.2C5.80001 9.6 5.00001 9.3 4.00001 9.3C2.50001 9.3 1.20001 10.5 1.20001 12.1V18.1C1.20001 19.6 2.40001 20.9 4.00001 20.9C5.20001 20.9 6.30001 20.3 7.00001 19.4C7.10001 19.6 7.20001 19.7 7.40001 19.8C8.50001 20.9 10 20.9 13.1 20.9H13.6C16.1 20.9 17.3 20.9 18.5 20.3C18.6 20.2 18.7 20.2 18.8 20.1C19.9 19.4 20.4 18.3 21.4 16C22.6 13.3 23.1 12.1 22.5 10.9ZM6.30001 17C6.30001 18.2 5.30001 19.3 4.00001 19.3C3.30001 19.3 2.70001 18.7 2.70001 18V12C2.70001 11.3 3.30001 10.7 4.00001 10.7C5.20001 10.7 6.30001 11.7 6.30001 13V13.2V14.2V17ZM20 15.2C19.1 17.2 18.6 18.2 17.9 18.7C17.8 18.7 17.8 18.8 17.7 18.8C16.9 19.2 15.8 19.2 13.6 19.2H13.1C10.4 19.2 9.10001 19.2 8.40001 18.6C7.80001 18 7.70001 16.9 7.70001 14.1V13.1C7.70001 11.7 7.70001 11.1 7.90001 10.5C8.20001 10 8.60001 9.5 9.60001 8.5L13.6 4C13.7 3.9 13.7 3.9 13.7 3.9C13.8 3.9 13.8 3.8 13.9 3.8C14 3.8 14.1 3.8 14.1 3.9C14.1 3.9 14.2 4 14.2 4.1C14.3 4.3 14.4 4.4 14.4 4.5C14.8 5.2 15 6 14.8 6.8C14.8 6.9 14.7 7 14.7 7.2L14.5 8C14.2 8.8 14.1 9.3 14.3 9.8C14.4 10.2 14.7 10.5 15 10.8C15.4 11.1 15.9 11.1 16.8 11.1H17.2C19.4 11.1 20.7 11.1 21.1 11.6C21.1 11.7 21.2 11.7 21.2 11.8C21.5 12.1 20.9 13.3 20 15.2Z" fill="#141B34"/>
</svg>
