<svg width="24" height="24" viewBox="0 0 24 24" fill="none" xmlns="http://www.w3.org/2000/svg">
<path d="M13.5 21.8H6C4.6 21.8 3.4 21.2 2.1 20C1.5 19.4 1.2 18.7 1.3 18C1.5 16.6 3.2 15.6 4.3 14.9C4.4 14.8 4.6 14.7 4.7 14.7C7.8 12.8 11.7 12.8 14.8 14.7C14.9 14.8 15.1 14.8 15.2 14.9C16.3 15.6 18 16.5 18.2 18C18.3 18.7 18 19.4 17.4 20C16.6 20.7 15.3 21.8 13.5 21.8ZM9.8 14.8C8.3 14.8 6.8 15.2 5.5 16C5.3 16 5.2 16.1 5 16.2C4.2 16.6 2.8 17.5 2.7 18.2C2.7 18.4 2.8 18.7 3.1 18.9C4.1 19.8 4.9 20.3 5.9 20.3H13.5C14.5 20.3 15.3 19.9 16.3 18.9C16.6 18.6 16.7 18.4 16.7 18.2C16.6 17.5 15.2 16.7 14.4 16.2C14.2 16.1 14.1 16 14 16C12.7 15.2 11.2 14.8 9.8 14.8Z" fill="#141B34"/>
<path d="M9.5 11.8C6.9 11.8 4.7 9.7 4.7 7C4.7 4.3 6.8 2.2 9.5 2.2C12.2 2.2 14.3 4.3 14.3 7C14.3 9.7 12.1 11.8 9.5 11.8ZM9.5 3.8C7.7 3.8 6.3 5.2 6.3 7C6.3 8.8 7.8 10.3 9.6 10.3C11.4 10.3 12.9 8.8 12.9 7C12.9 5.2 11.3 3.8 9.5 3.8Z" fill="#141B34"/>
<path d="M22 5.8H17C16.6 5.8 16.2 5.5 16.2 5C16.2 4.5 16.5 4.2 17 4.2H22C22.4 4.2 22.8 4.5 22.8 5C22.8 5.5 22.4 5.8 22 5.8Z" fill="#141B34"/>
<path d="M22 8.8H17C16.6 8.8 16.2 8.5 16.2 8C16.2 7.5 16.5 7.2 17 7.2H22C22.4 7.2 22.8 7.5 22.8 8C22.8 8.5 22.4 8.8 22 8.8Z" fill="#141B34"/>
<path d="M22 11.8H20C19.6 11.8 19.2 11.5 19.2 11C19.2 10.5 19.5 10.2 20 10.2H22C22.4 10.2 22.8 10.5 22.8 11C22.8 11.5 22.4 11.8 22 11.8Z" fill="#141B34"/>
</svg>
