<svg width="232" height="232" viewBox="0 0 232 232" fill="none" xmlns="http://www.w3.org/2000/svg">
<g id="circle-lock-01 (1) 1">
<path id="Vector (Stroke)" fill-rule="evenodd" clip-rule="evenodd" d="M116 84.5833C82.633 84.5833 55.5835 111.633 55.5835 145C55.5835 178.367 82.633 205.417 116 205.417C149.367 205.417 176.417 178.367 176.417 145C176.417 111.633 149.367 84.5833 116 84.5833ZM41.0835 145C41.0835 103.625 74.6249 70.0833 116 70.0833C157.376 70.0833 190.917 103.625 190.917 145C190.917 186.375 157.376 219.917 116 219.917C74.6249 219.917 41.0835 186.375 41.0835 145Z" fill="#124E58"/>
<path id="Vector (Stroke)_2" fill-rule="evenodd" clip-rule="evenodd" d="M65.25 62.8333C65.25 34.8049 87.9716 12.0833 116 12.0833C144.029 12.0833 166.75 34.8049 166.75 62.8333V91.8333C166.75 95.8374 163.504 99.0833 159.5 99.0833C155.496 99.0833 152.25 95.8374 152.25 91.8333V62.8333C152.25 42.813 136.02 26.5833 116 26.5833C95.9797 26.5833 79.75 42.813 79.75 62.8333V91.8333C79.75 95.8374 76.5041 99.0833 72.5 99.0833C68.4959 99.0833 65.25 95.8374 65.25 91.8333V62.8333Z" fill="#124E58"/>
<path id="Vector (Stroke)_3" fill-rule="evenodd" clip-rule="evenodd" d="M106.333 145C106.333 139.661 110.661 135.333 116 135.333H116.087C121.426 135.333 125.754 139.661 125.754 145C125.754 150.339 121.426 154.667 116.087 154.667H116C110.661 154.667 106.333 150.339 106.333 145Z" fill="#124E58"/>
</g>
</svg>
