<svg width="22" height="22" viewBox="0 0 22 22" fill="none" xmlns="http://www.w3.org/2000/svg">
<g id="Group">
<path id="Union" fill-rule="evenodd" clip-rule="evenodd" d="M19.6 2.40078C18 0.800781 15.6 0.800781 11 0.800781C6.30005 0.800781 4.00005 0.800781 2.40005 2.40078C0.800049 4.00078 0.800049 6.30078 0.800049 11.0008C0.800049 15.7008 0.800049 18.0008 2.40005 19.6008C4.00005 21.2008 6.40005 21.2008 11 21.2008C15.7 21.2008 18 21.2008 19.6 19.6008C21.2001 18.0008 21.2001 15.6008 21.2001 11.0008C21.2001 6.30078 21.2001 4.00078 19.6 2.40078ZM3.40005 3.40078C4.60005 2.20078 6.70005 2.20078 11 2.20078C15.3 2.20078 17.4 2.20078 18.6 3.40078C19.4 4.20078 19.6 5.30078 19.7001 7.20078H2.30005C2.40005 5.40078 2.70005 4.20078 3.40005 3.40078ZM18.6 18.6008C17.4001 19.8008 15.3001 19.8008 11.0001 19.8008H11H11C6.70004 19.8008 4.60005 19.8008 3.40005 18.6008C2.20005 17.4008 2.20005 15.3008 2.20005 11.0008V8.80078H19.7001V11.0008C19.8001 15.3008 19.8001 17.4008 18.6 18.6008ZM6.00006 6.00079C6.60006 6.00079 7.00006 5.60079 7.00006 5.00079C7.00006 4.40079 6.60006 4.00079 6.00006 4.00079C5.40006 4.00079 5.00006 4.40079 5.00006 5.00079C5.00006 5.60079 5.50006 6.00079 6.00006 6.00079ZM11.0001 5.00079C11.0001 5.60079 10.6001 6.00079 10.0001 6.00079C9.50006 6.00079 9.00006 5.60079 9.00006 5.00079C9.00006 4.40079 9.40006 4.00079 10.0001 4.00079C10.6001 4.00079 11.0001 4.40079 11.0001 5.00079ZM11.0001 10.2008C7.80007 10.2008 5.20007 12.8008 5.20007 16.0008C5.20007 16.4008 5.50007 16.8008 6.00007 16.8008C6.50007 16.8008 6.80007 16.5008 6.80007 16.0008C6.80007 13.7008 8.70007 11.8008 11.0001 11.8008C13.3001 11.8008 15.2001 13.7008 15.2001 16.0008C15.2001 16.4008 15.5001 16.8008 16.0001 16.8008C16.5001 16.8008 16.8001 16.5008 16.8001 16.0008C16.8001 12.8008 14.2001 10.2008 11.0001 10.2008ZM9.80007 15.2008L11.2001 13.8008C11.5001 13.5008 11.9001 13.5008 12.2001 13.8008C12.5001 14.1008 12.5001 14.6008 12.2001 14.9008L10.8001 16.3008C10.7001 16.4008 10.5001 16.5008 10.3001 16.5008C10.1001 16.5008 9.90007 16.4008 9.80007 16.3008C9.50007 16.0008 9.50007 15.5008 9.80007 15.2008Z" fill="white"/>
</g>
</svg>
