<svg width="80" height="80" viewBox="0 0 80 80" fill="none" xmlns="http://www.w3.org/2000/svg">
<g id="delivery-box-01">
<path id="Vector" d="M6.6665 44.7618V26.6665H73.3332V44.7618C73.3332 58.2305 73.3332 64.9648 68.9942 69.1488C64.6548 73.3332 57.6712 73.3332 43.7035 73.3332H36.2962C22.3286 73.3332 15.3448 73.3332 11.0057 69.1488C6.6665 64.9648 6.6665 58.2305 6.6665 44.7618Z" fill="#CFF6EF"/>
<path id="Vector (Stroke)" fill-rule="evenodd" clip-rule="evenodd" d="M4.16651 26.6665C4.16651 25.2858 5.28579 24.1665 6.66651 24.1665H73.3332C74.7139 24.1665 75.8332 25.2858 75.8332 26.6665V44.9572C75.8332 51.5258 75.8333 56.7197 75.2668 60.7823C74.6834 64.9667 73.4567 68.3186 70.7295 70.9485C68.0149 73.5661 64.5763 74.7325 60.2809 75.2894C56.0859 75.8333 50.7153 75.8332 43.8871 75.8332H36.1126C29.2844 75.8332 23.9138 75.8333 19.7188 75.2894C15.4235 74.7325 11.9849 73.5661 9.2703 70.9484C6.54301 68.3186 5.31626 64.9666 4.73285 60.7823C4.16641 56.7197 4.16645 51.5258 4.1665 44.9571L4.16651 26.6665ZM9.16651 29.1665V44.7618C9.16651 51.5694 9.17221 56.4144 9.68495 60.0919C10.1863 63.6878 11.1291 65.795 12.741 67.3492C14.3656 68.9158 16.5885 69.8417 20.3617 70.3309C24.1978 70.8282 29.2442 70.8332 36.2962 70.8332H43.7035C50.7556 70.8332 55.8019 70.8282 59.638 70.3309C63.4113 69.8417 65.6341 68.9159 67.2588 67.3492C68.8706 65.795 69.8134 63.6879 70.3147 60.0919C70.8275 56.4144 70.8332 51.5694 70.8332 44.7618V29.1665H9.16651Z" fill="#124E58"/>
<path id="Vector (Stroke)_2" fill-rule="evenodd" clip-rule="evenodd" d="M21.0179 9.36179C19.3142 9.54706 18.3125 9.88877 17.5064 10.4261C16.7004 10.9635 15.9997 11.7567 15.1734 13.2581C14.3176 14.8131 13.4433 16.9026 12.1795 19.9357L8.97436 27.628C8.44332 28.9026 6.97963 29.5052 5.70513 28.9742C4.43062 28.4432 3.82793 26.9795 4.35898 25.705L7.56411 18.0127L7.61734 17.8849C8.8149 15.0106 9.79082 12.6683 10.7929 10.8474C11.8394 8.946 13.0197 7.40802 14.7329 6.26589C16.4461 5.12374 18.3198 4.62571 20.4774 4.3911C22.5436 4.16642 25.081 4.16646 28.1946 4.16651H51.8054C54.919 4.16646 57.4565 4.16642 59.5226 4.3911C61.6802 4.62571 63.5538 5.12375 65.2671 6.26586C66.9804 7.40802 68.1607 8.94603 69.2071 10.8474C70.2088 12.6676 71.1844 15.0089 72.3814 17.8816L72.436 18.0126L75.6411 25.705C76.1721 26.9795 75.5694 28.4432 74.2949 28.9742C73.0203 29.5052 71.5567 28.9025 71.0256 27.628L67.8207 19.9358C67.8207 19.9358 67.8207 19.9359 67.8207 19.9358C66.5568 16.9027 65.6824 14.8131 64.8266 13.2581C64.0003 11.7567 63.2997 10.9635 62.4936 10.4262C61.6875 9.88877 60.6858 9.54705 58.9821 9.36179C57.2177 9.16993 54.9526 9.16651 51.6667 9.16651H28.3333C25.0475 9.16651 22.7824 9.16992 21.0179 9.36179Z" fill="#124E58"/>
<path id="Vector (Stroke)_3" fill-rule="evenodd" clip-rule="evenodd" d="M40 4.1665C41.3807 4.1665 42.5 5.28579 42.5 6.6665V26.6665C42.5 28.0472 41.3807 29.1665 40 29.1665C38.6193 29.1665 37.5 28.0472 37.5 26.6665V6.6665C37.5 5.28579 38.6193 4.1665 40 4.1665Z" fill="#124E58"/>
<path id="Vector (Stroke)_4" fill-rule="evenodd" clip-rule="evenodd" d="M30.8335 40C30.8335 38.6193 31.9528 37.5 33.3335 37.5H46.6668C48.0475 37.5 49.1668 38.6193 49.1668 40C49.1668 41.3807 48.0475 42.5 46.6668 42.5H33.3335C31.9528 42.5 30.8335 41.3807 30.8335 40Z" fill="#124E58"/>
</g>
</svg>
