<svg width="20" height="20" viewBox="0 0 20 20" fill="none" xmlns="http://www.w3.org/2000/svg">
<g id="filter_minor">
<g id="Icon">
<path fill-rule="evenodd" clip-rule="evenodd" d="M2 6C2 5.44772 2.44772 5 3 5H17C17.5523 5 18 5.44772 18 6C18 6.55228 17.5523 7 17 7H3C2.44772 7 2 6.55228 2 6Z" fill="#5C5F62"/>
<path fill-rule="evenodd" clip-rule="evenodd" d="M5 10C5 9.44772 5.44772 9 6 9H14C14.5523 9 15 9.44772 15 10C15 10.5523 14.5523 11 14 11H6C5.44772 11 5 10.5523 5 10Z" fill="#5C5F62"/>
<path fill-rule="evenodd" clip-rule="evenodd" d="M7 14C7 13.4477 7.44772 13 8 13H12C12.5523 13 13 13.4477 13 14C13 14.5523 12.5523 15 12 15H8C7.44772 15 7 14.5523 7 14Z" fill="#5C5F62"/>
</g>
</g>
</svg>
