<svg width="32" height="32" viewBox="0 0 32 32" fill="none" xmlns="http://www.w3.org/2000/svg">
<g id="google-icon 2" clip-path="url(#clip0_43_77)">
<g id="Group">
<g id="Clip path group">
<mask id="mask0_43_77" style="mask-type:luminance" maskUnits="userSpaceOnUse" x="0" y="0" width="32" height="32">
<g id="B">
<path id="Vector" d="M31.4091 13.0909H16.5V19.2727H25.0818C24.2818 23.2 20.9364 25.4545 16.5 25.4545C11.2636 25.4545 7.04546 21.2364 7.04546 16C7.04546 10.7636 11.2636 6.54545 16.5 6.54545C18.7546 6.54545 20.7909 7.34545 22.3909 8.65454L27.0455 3.99999C24.2091 1.52727 20.5727 -7.62939e-06 16.5 -7.62939e-06C7.62728 -7.62939e-06 0.5 7.12727 0.5 16C0.5 24.8727 7.62728 32 16.5 32C24.5 32 31.7727 26.1818 31.7727 16C31.7727 15.0545 31.6273 14.0364 31.4091 13.0909Z" fill="white"/>
</g>
</mask>
<g mask="url(#mask0_43_77)">
<path id="Vector_2" d="M-0.95459 25.4545V6.54545L11.4091 16L-0.95459 25.4545Z" fill="#FBBC05"/>
</g>
</g>
<g id="Clip path group_2">
<mask id="mask1_43_77" style="mask-type:luminance" maskUnits="userSpaceOnUse" x="0" y="0" width="32" height="32">
<g id="B_2">
<path id="Vector_3" d="M31.4091 13.0909H16.5V19.2727H25.0818C24.2818 23.2 20.9364 25.4545 16.5 25.4545C11.2636 25.4545 7.04546 21.2364 7.04546 16C7.04546 10.7636 11.2636 6.54545 16.5 6.54545C18.7546 6.54545 20.7909 7.34545 22.3909 8.65454L27.0455 3.99999C24.2091 1.52727 20.5727 -7.62939e-06 16.5 -7.62939e-06C7.62728 -7.62939e-06 0.5 7.12727 0.5 16C0.5 24.8727 7.62728 32 16.5 32C24.5 32 31.7727 26.1818 31.7727 16C31.7727 15.0545 31.6273 14.0364 31.4091 13.0909Z" fill="white"/>
</g>
</mask>
<g mask="url(#mask1_43_77)">
<path id="Vector_4" d="M-0.95459 6.54545L11.4091 16L16.5 11.5636L33.9545 8.72727V-1.45455H-0.95459V6.54545Z" fill="#EA4335"/>
</g>
</g>
<g id="Clip path group_3">
<mask id="mask2_43_77" style="mask-type:luminance" maskUnits="userSpaceOnUse" x="0" y="0" width="32" height="32">
<g id="B_3">
<path id="Vector_5" d="M31.4091 13.0909H16.5V19.2727H25.0818C24.2818 23.2 20.9364 25.4545 16.5 25.4545C11.2636 25.4545 7.04546 21.2364 7.04546 16C7.04546 10.7636 11.2636 6.54545 16.5 6.54545C18.7546 6.54545 20.7909 7.34545 22.3909 8.65454L27.0455 3.99999C24.2091 1.52727 20.5727 -7.62939e-06 16.5 -7.62939e-06C7.62728 -7.62939e-06 0.5 7.12727 0.5 16C0.5 24.8727 7.62728 32 16.5 32C24.5 32 31.7727 26.1818 31.7727 16C31.7727 15.0545 31.6273 14.0364 31.4091 13.0909Z" fill="white"/>
</g>
</mask>
<g mask="url(#mask2_43_77)">
<path id="Vector_6" d="M-0.95459 25.4545L20.8636 8.72727L26.6091 9.45454L33.9545 -1.45455V33.4546H-0.95459V25.4545Z" fill="#34A853"/>
</g>
</g>
<g id="Clip path group_4">
<mask id="mask3_43_77" style="mask-type:luminance" maskUnits="userSpaceOnUse" x="0" y="0" width="32" height="32">
<g id="B_4">
<path id="Vector_7" d="M31.4091 13.0909H16.5V19.2727H25.0818C24.2818 23.2 20.9364 25.4545 16.5 25.4545C11.2636 25.4545 7.04546 21.2364 7.04546 16C7.04546 10.7636 11.2636 6.54545 16.5 6.54545C18.7546 6.54545 20.7909 7.34545 22.3909 8.65454L27.0455 3.99999C24.2091 1.52727 20.5727 -7.62939e-06 16.5 -7.62939e-06C7.62728 -7.62939e-06 0.5 7.12727 0.5 16C0.5 24.8727 7.62728 32 16.5 32C24.5 32 31.7727 26.1818 31.7727 16C31.7727 15.0545 31.6273 14.0364 31.4091 13.0909Z" fill="white"/>
</g>
</mask>
<g mask="url(#mask3_43_77)">
<path id="Vector_8" d="M33.9546 33.4545L11.4091 16L8.5 13.8182L33.9546 6.54545V33.4545Z" fill="#4285F4"/>
</g>
</g>
</g>
</g>
<defs>
<clipPath id="clip0_43_77">
<rect width="32" height="32" fill="white"/>
</clipPath>
</defs>
</svg>
