<svg width="72" height="44" viewBox="0 0 72 44" fill="none" xmlns="http://www.w3.org/2000/svg">
<rect width="72" height="44" rx="22" fill="#F2C852" />
<rect x="3" y="3" width="66" height="38" rx="19" fill="#F2C852" />
<path d="M21.728 32V14.12H28.4C29.616 14.12 30.688 14.344 31.616 14.792C32.56 15.224 33.296 15.864 33.824 16.712C34.352 17.544 34.616 18.56 34.616 19.76C34.616 20.944 34.344 21.96 33.8 22.808C33.272 23.64 32.544 24.28 31.616 24.728C30.688 25.176 29.616 25.4 28.4 25.4H24.992V32H21.728ZM24.992 22.52H28.448C29.04 22.52 29.552 22.408 29.984 22.184C30.416 21.944 30.752 21.616 30.992 21.2C31.232 20.784 31.352 20.304 31.352 19.76C31.352 19.2 31.232 18.72 30.992 18.32C30.752 17.904 30.416 17.584 29.984 17.36C29.552 17.12 29.04 17 28.448 17H24.992V22.52ZM37.2905 32V14.12H43.9625C45.1785 14.12 46.2505 14.344 47.1785 14.792C48.1225 15.224 48.8585 15.864 49.3865 16.712C49.9145 17.544 50.1785 18.56 50.1785 19.76C50.1785 20.944 49.9065 21.96 49.3625 22.808C48.8345 23.64 48.1065 24.28 47.1785 24.728C46.2505 25.176 45.1785 25.4 43.9625 25.4H40.5545V32H37.2905ZM40.5545 22.52H44.0105C44.6025 22.52 45.1145 22.408 45.5465 22.184C45.9785 21.944 46.3145 21.616 46.5545 21.2C46.7945 20.784 46.9145 20.304 46.9145 19.76C46.9145 19.2 46.7945 18.72 46.5545 18.32C46.3145 17.904 45.9785 17.584 45.5465 17.36C45.1145 17.12 44.6025 17 44.0105 17H40.5545V22.52Z" fill="#124E58" />
<rect x="3" y="3" width="66" height="38" rx="19" stroke="#124E58" strokeWidth="2" />
</svg>
