<svg width="48" height="32" viewBox="0 0 48 32" fill="none" xmlns="http://www.w3.org/2000/svg">
<g clip-path="url(#clip0_209_5038)">
<path d="M0 4C0 1.79086 1.79086 0 4 0H44C46.2091 0 48 1.79086 48 4V28C48 30.2091 46.2091 32 44 32H4C1.79086 32 0 30.2091 0 28V4Z" fill="#D4DEF7"/>
<path d="M35.4227 9.87076L34.494 11.9182H36.3565L35.4227 9.87076ZM24.7056 11.1395C24.8807 11.0564 24.9837 10.8757 24.9837 10.6512C24.9837 10.4313 24.8754 10.272 24.7004 10.1972C24.541 10.1142 24.2957 10.1046 24.0605 10.1046H22.3989V11.2454H24.0382C24.3007 11.2454 24.5201 11.2419 24.7056 11.1395ZM3.41466 9.87076L2.49642 11.9182H4.33843L3.41466 9.87076ZM46.1664 22.987H43.5605V21.8854H46.1558C46.4131 21.8854 46.5933 21.8547 46.7018 21.7581C46.8044 21.6721 46.8624 21.5504 46.8613 21.4232C46.8613 21.2735 46.796 21.1547 46.6964 21.0835C46.5987 21.0051 46.456 20.9694 46.2209 20.9694C44.954 20.9303 43.3733 21.005 43.3733 19.3794C43.3733 18.6344 43.8934 17.8502 45.3094 17.8502H47.9973V16.8281H45.5C44.7464 16.8281 44.1988 16.9923 43.8112 17.2477V16.8281H40.1174C39.5268 16.8281 38.8335 16.9612 38.5056 17.2477V16.8281H31.9092V17.2477C31.3843 16.9031 30.4984 16.8281 30.0898 16.8281H25.7388V17.2477C25.3236 16.8818 24.3998 16.8281 23.8371 16.8281H18.9676L17.8535 17.9251L16.8098 16.8281H9.53584V23.9965H16.6726L17.8206 22.8818L18.9022 23.9965L23.3013 24V22.3137H23.7339C24.3176 22.3222 25.006 22.3007 25.6135 22.0618V23.9963H29.242V22.1278H29.417C29.6403 22.1278 29.6624 22.1364 29.6624 22.3394V23.9959H40.6854C41.3853 23.9959 42.1169 23.8331 42.5219 23.537V23.9959H46.0184C46.7459 23.9959 47.4565 23.9031 47.9971 23.6655V22.3302C47.6695 22.7662 47.0305 22.9873 46.1662 22.9873L46.1664 22.987ZM23.7917 21.2944H22.108V23.0174H19.4853L17.8237 21.3169L16.097 23.0174H10.752V17.8804H16.1792L17.8393 19.5643L19.5557 17.8804H23.8674C24.9383 17.8804 26.1414 18.1502 26.1414 19.5728C26.1414 20.9998 24.9712 21.2944 23.7917 21.2944ZM31.8879 21.0615C32.0785 21.3122 32.106 21.5463 32.1115 21.9991V23.0175H30.7567V22.3748C30.7567 22.0658 30.7895 21.6081 30.5386 21.3693C30.3416 21.1853 30.041 21.1414 29.5485 21.1414H28.1065V23.0175H26.7507V17.8805H29.8659C30.5493 17.8805 31.0467 17.9081 31.4895 18.1229C31.9154 18.3569 32.1834 18.6776 32.1834 19.2636C32.1833 20.0835 31.5822 20.5017 31.227 20.6303C31.5272 20.7311 31.7726 20.9118 31.8879 21.0615ZM37.4619 18.9428H34.302V19.8767H37.3846V20.9248H34.302V21.9469L37.4619 21.9515V23.0174H32.9583V17.8804H37.4619V18.9428ZM40.9293 23.0174H38.3012V21.9158H40.9188C41.1748 21.9158 41.3563 21.885 41.47 21.7885C41.5627 21.7091 41.6295 21.5936 41.6295 21.4537C41.6295 21.3039 41.5572 21.185 41.4648 21.1138C41.3615 21.0355 41.2191 21 40.9842 21C39.7223 20.9606 38.1419 21.0353 38.1419 19.4099C38.1419 18.6648 38.6566 17.8805 40.0712 17.8805H42.7765V18.9737H40.3011C40.0557 18.9737 39.8962 18.9822 39.7606 19.0667C39.6126 19.1499 39.5578 19.2733 39.5578 19.4361C39.5578 19.6299 39.6833 19.7618 39.853 19.8188C39.9954 19.8638 40.1482 19.877 40.3781 19.877L41.1046 19.895C41.8368 19.911 42.3399 20.0265 42.6455 20.308C42.9081 20.5553 43.0492 20.8677 43.0492 21.3963C43.0491 22.5015 42.2901 23.0174 40.9293 23.0174ZM30.4638 19.0257C30.3008 18.9376 30.0602 18.9329 29.82 18.9329H28.1584V20.0866H29.7978C30.0603 20.0866 30.2835 20.0781 30.4638 19.9807C30.6387 19.8845 30.7434 19.7074 30.7434 19.4877C30.7434 19.268 30.6387 19.1089 30.4638 19.0257ZM45.5404 18.9328C45.295 18.9328 45.1318 18.9413 44.9944 19.0256C44.852 19.1089 44.7973 19.2322 44.7973 19.3952C44.7973 19.5889 44.9175 19.7208 45.0924 19.7779C45.2348 19.8229 45.3875 19.8361 45.6123 19.8361L46.3438 19.8538C47.0816 19.8704 47.5745 19.986 47.8748 20.2675C47.9295 20.3065 47.9624 20.3505 48 20.3945V18.9329H45.5406L45.5404 18.9328ZM23.8384 18.9328H22.079V20.2411H23.8228C24.3412 20.2411 24.6636 20.0071 24.6639 19.5627C24.6636 19.1135 24.3256 18.9328 23.8384 18.9328ZM12.096 18.9328V19.8668H15.0583V20.9149H12.096V21.9369H15.4136L16.955 20.4299L15.479 18.9328H12.096ZM20.759 22.5251V18.4067L18.6873 20.4328L20.759 22.5251ZM12.2092 14.2775V15.1626H23.4827L23.4775 13.2901H23.6957C23.8485 13.2949 23.8929 13.3077 23.8929 13.5372V15.1626H29.7237V14.7267C30.194 14.956 30.9253 15.1626 31.8879 15.1626H34.3409L34.8659 14.0219H36.0298L36.5431 15.1626H41.2701V14.0791L41.9857 15.1626H45.7738V8H42.0251V8.84592L41.5002 8H37.6535V8.84592L37.1715 8H31.9754C31.1055 8 30.3412 8.11044 29.7236 8.41826V8H26.1378V8.41826C25.7447 8.10097 25.2092 8 24.614 8H11.514L10.6351 9.85007L9.7324 8H5.60634V8.84592L5.15297 8H1.63413L6.15398e-05 11.4056V14.1298L2.41636 8.99398H4.42127L6.71608 13.8565V8.99398H8.91853L10.6844 12.478L12.3067 8.99398H14.5534V14.1298H13.1703L13.1652 10.1075L11.2085 14.1298H10.0237L8.06202 10.104V14.1298H5.31735L4.79887 12.9842H1.98934L1.46551 14.1298H0V15.163H2.30565L2.82548 14.0222H3.98944L4.50791 15.163H9.0442V14.2908L9.44907 15.1666H11.8039L12.2089 14.2776L12.2092 14.2775ZM29.9739 9.59262C30.41 9.18272 31.0932 8.99369 32.0231 8.99369H33.3294V10.0941H32.0505C31.5583 10.0941 31.2799 10.1608 31.0122 10.3985C30.7821 10.6147 30.6243 11.0234 30.6243 11.5617C30.6243 12.112 30.7446 12.5087 30.9953 12.7678C31.203 12.971 31.5807 13.0327 31.9358 13.0327H32.542L34.4437 8.99387H36.4655L38.7501 13.8515V8.99393H40.8046L43.1766 12.5707V8.99393H44.5588V14.1296H42.6466L40.0889 10.2749V14.1296H37.3407L36.8157 12.984H34.0126L33.5031 14.1296H31.924C31.2682 14.1296 30.4378 13.9976 29.9675 13.5615C29.4932 13.1255 29.2467 12.5348 29.2467 11.6009C29.2464 10.8391 29.3937 10.1429 29.9739 9.59262ZM27.1984 8.99375H28.5752V14.1296H27.1984V8.99375ZM20.9909 8.99375H24.0945C24.7839 8.99375 25.2923 9.0104 25.7286 9.23975C26.1554 9.46915 26.4113 9.80408 26.4113 10.3768C26.4113 11.1958 25.8105 11.6187 25.4607 11.7458C25.7558 11.8481 26.0081 12.0287 26.1283 12.1783C26.3188 12.4338 26.3517 12.6619 26.3517 13.1206V14.1295H24.9907L24.9856 13.4818C24.9856 13.1727 25.0181 12.7283 24.7726 12.4814C24.5755 12.3008 24.2749 12.2615 23.789 12.2615H22.3405V14.1296H20.9911L20.9909 8.99375ZM15.5512 8.99375H20.059V10.0632H16.9007V10.989H19.9831V12.0417H16.9007V13.0674H20.059V14.1295H15.5512V8.99375Z" fill="#2557D6"/>
</g>
<defs>
<clipPath id="clip0_209_5038">
<rect width="48" height="32" fill="white"/>
</clipPath>
</defs>
</svg>
