<svg width="72" height="48" viewBox="0 0 72 48" fill="none" xmlns="http://www.w3.org/2000/svg">
<g clipPath="url(#clip0_209_5096)">
<path d="M0 6C0 2.68629 2.68629 0 6 0H66C69.3137 0 72 2.68629 72 6V42C72 45.3137 69.3137 48 66 48H6C2.68629 48 0 45.3137 0 42V6Z" fill="#CCDEFF"/>
<path d="M16.1562 17.2762C15.4042 16.7592 14.4228 16.5 13.2122 16.5H8.5251C8.15395 16.5 7.9489 16.6856 7.90996 17.0565L6.00598 29.0083C5.98619 29.1257 6.01556 29.233 6.09382 29.3306C6.17163 29.4284 6.26949 29.477 6.3867 29.477H8.61302C9.00351 29.477 9.21813 29.2919 9.25753 28.9205L9.78474 25.6984C9.804 25.5422 9.87267 25.4152 9.98988 25.3175C10.107 25.2199 10.2535 25.156 10.4293 25.1268C10.605 25.0978 10.7708 25.0831 10.9273 25.0831C11.0833 25.0831 11.2688 25.0931 11.4839 25.1125C11.6986 25.1319 11.8354 25.1415 11.894 25.1415C13.5735 25.1415 14.8917 24.6683 15.8488 23.7208C16.8054 22.7738 17.2843 21.4606 17.2843 19.7807C17.2843 18.6285 16.9079 17.7937 16.1562 17.2759V17.2762ZM13.7396 20.8649C13.6417 21.5485 13.3881 21.9975 12.978 22.2124C12.5678 22.4276 11.982 22.5347 11.2204 22.5347L10.2537 22.5638L10.7518 19.4293C10.7906 19.2147 10.9175 19.1072 11.1325 19.1072H11.6893C12.47 19.1072 13.0367 19.2198 13.3883 19.444C13.7396 19.6688 13.8568 20.1425 13.7396 20.8649Z" fill="#003087"/>
<path d="M65.6188 16.5H63.4513C63.2358 16.5 63.109 16.6074 63.0704 16.8224L61.1662 29.0088L61.1368 29.0674C61.1368 29.1655 61.1759 29.2578 61.2542 29.3457C61.3319 29.4335 61.43 29.4774 61.547 29.4774H63.4807C63.8512 29.4774 64.0563 29.2923 64.096 28.921L65.9999 16.9396V16.9105C65.9998 16.637 65.8725 16.5004 65.6188 16.5004V16.5Z" fill="#009CDE"/>
<path d="M39.4303 21.2167C39.4303 21.1193 39.3911 21.0264 39.3135 20.9387C39.2351 20.8509 39.1472 20.8066 39.0498 20.8066H36.7942C36.5789 20.8066 36.4031 20.9048 36.2667 21.0995L33.1616 25.6695L31.8727 21.2755C31.7745 20.9632 31.56 20.8066 31.2282 20.8066H29.0308C28.9329 20.8066 28.8451 20.8507 28.7675 20.9387C28.6891 21.0264 28.6503 21.1195 28.6503 21.2167C28.6503 21.256 28.8407 21.832 29.2214 22.9451C29.6022 24.0586 30.0123 25.2597 30.4517 26.5487C30.8912 27.8375 31.1205 28.5214 31.1401 28.5988C29.5386 30.7865 28.7382 31.9582 28.7382 32.1142C28.7382 32.3683 28.8649 32.4951 29.119 32.4951H31.3746C31.5893 32.4951 31.765 32.3977 31.902 32.2023L39.3721 21.4217C39.4109 21.383 39.4303 21.315 39.4303 21.2166V21.2167Z" fill="#003087"/>
<path d="M60.4344 20.8068H58.208C57.9343 20.8068 57.7689 21.1291 57.7102 21.7737C57.2018 20.9927 56.2748 20.6017 54.927 20.6017C53.521 20.6017 52.3247 21.1291 51.3387 22.1837C50.3523 23.2383 49.8594 24.4788 49.8594 25.9043C49.8594 27.0568 50.1962 27.9745 50.8698 28.6578C51.5436 29.3418 52.4467 29.6831 53.5798 29.6831C54.1461 29.6831 54.7221 29.5658 55.308 29.3316C55.8939 29.0973 56.3524 28.785 56.685 28.3942C56.685 28.4138 56.6651 28.5014 56.6265 28.6576C56.587 28.8141 56.5677 28.9316 56.5677 29.0091C56.5677 29.3219 56.6943 29.4777 56.9486 29.4777H58.9701C59.3407 29.4777 59.5557 29.2926 59.6141 28.9212L60.8154 21.2754C60.8346 21.1581 60.8054 21.0509 60.7274 20.9532C60.6489 20.8557 60.5515 20.8068 60.4344 20.8068ZM56.6116 26.578C56.1136 27.0662 55.513 27.3102 54.81 27.3102C54.2434 27.3102 53.7849 27.1543 53.4331 26.8416C53.0814 26.5298 52.9057 26.1001 52.9057 25.5527C52.9057 24.8306 53.1498 24.2198 53.6383 23.7218C54.1258 23.2238 54.7318 22.9749 55.4544 22.9749C56.0008 22.9749 56.4549 23.136 56.8165 23.458C57.1775 23.7804 57.3587 24.2247 57.3587 24.7912C57.3585 25.4942 57.1095 26.09 56.6116 26.578Z" fill="#009CDE"/>
<path d="M27.156 20.8068H24.9296C24.6558 20.8068 24.4902 21.1291 24.4315 21.7737C23.9042 20.9927 22.9765 20.6017 21.6485 20.6017C20.2424 20.6017 19.0461 21.1291 18.06 22.1837C17.0736 23.2383 16.5807 24.4788 16.5807 25.9043C16.5807 27.0568 16.9176 27.9745 17.5914 28.6578C18.2652 29.3418 19.1682 29.6831 20.3011 29.6831C20.8476 29.6831 21.4143 29.5658 22.0001 29.3316C22.5859 29.0973 23.0547 28.785 23.4062 28.3942C23.3278 28.6284 23.289 28.8335 23.289 29.0091C23.289 29.3219 23.4159 29.4777 23.6698 29.4777H25.6911C26.0618 29.4777 26.2769 29.2926 26.3356 28.9212L27.5366 21.2754C27.5558 21.1581 27.5266 21.0509 27.4487 20.9532C27.3705 20.8557 27.273 20.8068 27.156 20.8068ZM23.3331 26.5925C22.835 27.0715 22.2244 27.3102 21.5023 27.3102C20.9356 27.3102 20.4816 27.1543 20.1401 26.8416C19.7981 26.5298 19.6274 26.1001 19.6274 25.5527C19.6274 24.8306 19.8714 24.2198 20.3598 23.7218C20.8477 23.2238 21.4532 22.9748 22.176 22.9748C22.7226 22.9748 23.1766 23.136 23.5383 23.458C23.8993 23.7804 24.0802 24.2247 24.0802 24.7912C24.0801 25.5138 23.8311 26.1145 23.3331 26.5925Z" fill="#003087"/>
<path d="M49.4345 17.2761C48.6825 16.7591 47.7014 16.5 46.4905 16.5H41.8326C41.442 16.5 41.227 16.6856 41.1882 17.0565L39.2841 29.0083C39.2643 29.1256 39.2936 29.233 39.372 29.3306C39.4494 29.4284 39.5476 29.477 39.6648 29.477H42.0668C42.3011 29.477 42.4573 29.3502 42.5356 29.0963L43.0629 25.6983C43.0823 25.5422 43.1506 25.4152 43.268 25.3174C43.3852 25.2198 43.5315 25.156 43.7075 25.1268C43.8831 25.0978 44.0488 25.0831 44.2054 25.0831C44.3616 25.0831 44.5469 25.093 44.7619 25.1125C44.9766 25.1319 45.1138 25.1415 45.172 25.1415C46.8518 25.1415 48.1697 24.6683 49.1268 23.7208C50.0838 22.7738 50.5622 21.4606 50.5622 19.7806C50.5623 18.6284 50.1861 17.7936 49.4345 17.2759V17.2761ZM46.4319 22.0951C46.0022 22.388 45.3576 22.5344 44.4986 22.5344L43.561 22.5637L44.059 19.4291C44.0977 19.2146 44.2247 19.1069 44.4397 19.1069H44.9669C45.3966 19.1069 45.7383 19.1266 45.9925 19.1655C46.2459 19.2047 46.4905 19.3266 46.7248 19.5315C46.9593 19.7367 47.0763 20.0347 47.0763 20.4251C47.0763 21.2456 46.8613 21.8019 46.4319 22.0951Z" fill="#009CDE"/>
</g>
<defs>
<clipPath id="clip0_209_5096">
<rect width="72" height="48" fill="white"/>
</clipPath>
</defs>
</svg>
