<svg width="48" height="32" viewBox="0 0 48 32" fill="none" xmlns="http://www.w3.org/2000/svg">
<g clip-path="url(#clip0_209_5031)">
<path d="M0 4C0 1.79086 1.79086 0 4 0H44C46.2091 0 48 1.79086 48 4V28C48 30.2091 46.2091 32 44 32H4C1.79086 32 0 30.2091 0 28V4Z" fill="#FDEACE"/>
<path d="M29.008 6.52738L18.679 6.5629L18.9919 25.4727L29.321 25.4372L29.008 6.52738Z" fill="#FF5F00"/>
<path d="M19.3587 16.056C19.2948 12.2098 21.0178 8.79242 23.7164 6.57573C21.6794 4.97728 19.1257 4.01608 16.3574 4.02556C9.79919 4.04802 4.58277 9.45074 4.69337 16.1062C4.80397 22.7616 10.1994 28.128 16.7576 28.1055C19.5259 28.0961 22.0474 27.1175 24.031 25.5053C21.2595 23.3407 19.4227 19.9021 19.3587 16.056Z" fill="#EB001B"/>
<path d="M43.3066 15.8939C43.4172 22.5493 38.2008 27.952 31.6425 27.9745C28.8742 27.984 26.3205 27.0228 24.2835 25.4243C27.0151 23.2075 28.7051 19.7902 28.6412 15.9441C28.5773 12.098 26.741 8.69277 23.9689 6.49481C25.9526 4.88259 28.4741 3.90401 31.2424 3.89453C37.8006 3.87207 43.1965 9.27189 43.3066 15.8939Z" fill="#F79E1B"/>
</g>
<defs>
<clipPath id="clip0_209_5031">
<rect width="48" height="32" fill="white"/>
</clipPath>
</defs>
</svg>
