<svg width="40" height="40" viewBox="0 0 40 40" fill="none" xmlns="http://www.w3.org/2000/svg">
<path id="Vector (Stroke)" fill-rule="evenodd" clip-rule="evenodd" d="M8.70033 0.629417C10.9021 -0.654883 13.7282 0.0888232 15.0125 2.29053L20 10.8403L24.9875 2.29053C26.2718 0.0888232 29.0979 -0.654883 31.2997 0.629417C33.5015 1.91372 34.2452 4.73969 32.9608 6.94139L28.0355 15.3848H35.3846C37.9336 15.3848 40 17.4511 40 20C40 22.5489 37.9336 24.6152 35.3846 24.6152H28.0355L32.9608 33.0586C34.2452 35.2603 33.5015 38.0863 31.2997 39.3706C29.0979 40.6549 26.2718 39.9112 24.9875 37.7095L20 29.1597L15.0125 37.7095C13.7282 39.9112 10.9021 40.6549 8.70033 39.3706C6.49854 38.0863 5.7548 35.2603 7.03915 33.0586L11.9645 24.6152H4.61538C2.06638 24.6152 0 22.5489 0 20C0 17.4511 2.06638 15.3848 4.61538 15.3848H11.9645L7.03915 6.94139C5.7548 4.73969 6.49854 1.91372 8.70033 0.629417Z" fill="#0D3D4B"/>
</svg>
