<svg width="32" height="32" viewBox="0 0 32 32" fill="none" xmlns="http://www.w3.org/2000/svg">
<g id="money-back 1">
<g id="Layer_36">
<path id="Vector" d="M3.99996 12.3749H28L28.725 10.0249C28.9875 9.16238 28.5125 8.26238 27.65 7.99988C27.6125 7.98738 27.575 7.97488 27.5375 7.97488L24.75 7.32488C24.7125 7.31238 24.6875 7.28738 24.6875 7.26238L24.05 4.46238C23.85 3.58738 22.975 3.03738 22.1 3.23738C22.0625 3.24988 22.025 3.26238 21.9875 3.26238L19.25 4.11238C19.2125 4.12488 19.175 4.11238 19.1625 4.08738L17.2125 1.98738C16.6 1.32488 15.575 1.28738 14.9125 1.89988C14.8875 1.92488 14.8625 1.94988 14.825 1.98738L12.875 4.08738C12.85 4.11238 12.8125 4.12488 12.7875 4.11238L10.05 3.26238C9.18745 2.99988 8.28745 3.47488 8.02495 4.33738C8.01245 4.37488 7.99995 4.41238 7.99995 4.44988L7.36245 7.24988C7.34996 7.28738 7.32495 7.31238 7.29995 7.31238L4.49996 7.94988C3.62496 8.14988 3.07496 9.02488 3.27496 9.89988C3.28746 9.93738 3.29996 9.97488 3.29996 10.0124L3.99996 12.3749Z" fill="#F9828B"/>
<path id="Vector_2" d="M28.0126 19.625H4.00006L3.27506 21.975C3.01256 22.8375 3.48756 23.7375 4.35006 24C4.38756 24.0125 4.42506 24.025 4.46256 24.025L7.26256 24.6625C7.30006 24.675 7.32506 24.7 7.32506 24.725L7.96256 27.525C8.16256 28.4 9.03756 28.95 9.91256 28.75C9.95006 28.7375 9.98756 28.725 10.0251 28.725L12.7626 27.875C12.8001 27.8625 12.8376 27.875 12.8501 27.9L14.8001 30C15.4126 30.6625 16.4376 30.7 17.1001 30.0875C17.1251 30.0625 17.1626 30.0375 17.1876 30L19.1376 27.9C19.1626 27.875 19.2001 27.8625 19.2251 27.875L21.9626 28.725C22.8251 28.9875 23.7251 28.5125 23.9876 27.65C24.0001 27.6125 24.0126 27.575 24.0126 27.5375L24.6501 24.7375C24.6626 24.7 24.6876 24.675 24.7126 24.675L27.5126 24.0375C28.3876 23.8375 28.9376 22.9625 28.7376 22.0875C28.7251 22.05 28.7126 22.0125 28.7126 21.975L28.0126 19.625Z" fill="#F9828B"/>
<path id="Vector_3" d="M5.58756 12.3124C5.60006 12.3374 5.60006 12.3499 5.60006 12.3749H26.4001C26.4001 12.3499 26.4126 12.3374 26.4126 12.3124L27.2626 9.5749C27.2751 9.5249 27.2501 9.4749 27.2001 9.4624C27.2001 9.4624 27.2001 9.4624 27.1876 9.4624L24.3876 8.8249C23.7751 8.6874 23.3001 8.2124 23.1626 7.5999L22.5251 4.7999C22.5126 4.7499 22.4626 4.7249 22.4126 4.7374C22.4126 4.7374 22.4126 4.7374 22.4001 4.7374L19.6626 5.5874C19.0626 5.7624 18.4251 5.5999 18.0001 5.1374L16.0501 3.0374C16.0126 2.9999 15.9626 2.9999 15.9251 3.0374L13.9751 5.1374C13.5501 5.5874 12.9001 5.7624 12.3126 5.5874L9.57506 4.7374C9.52506 4.7249 9.47506 4.7499 9.46256 4.7999C9.46256 4.7999 9.46256 4.7999 9.46256 4.8124L8.82506 7.6124C8.68756 8.2249 8.21256 8.6999 7.60006 8.8374L4.80006 9.4749C4.75006 9.4874 4.72506 9.5374 4.73756 9.5874C4.73756 9.5874 4.73756 9.5874 4.73756 9.5999L5.58756 12.3124Z" fill="#F45D64"/>
<path id="Vector_4" d="M26.425 19.6875C26.4125 19.6625 26.4125 19.65 26.4125 19.625H5.61251C5.61251 19.65 5.60001 19.6625 5.60001 19.6875L4.75001 22.425C4.73751 22.475 4.76251 22.525 4.81251 22.5375C4.81251 22.5375 4.81251 22.5375 4.82501 22.5375L7.62501 23.175C8.23751 23.3125 8.71251 23.7875 8.85001 24.4L9.48751 27.2C9.50001 27.25 9.55001 27.275 9.60001 27.2625C9.60001 27.2625 9.60001 27.2625 9.61251 27.2625L12.35 26.4125C12.95 26.225 13.5875 26.4 14.0125 26.8625L15.9625 28.9625C16 29 16.05 29 16.0875 28.9625L18.0375 26.8625C18.4625 26.4125 19.1125 26.2375 19.7 26.4125L22.4375 27.2625C22.4875 27.275 22.5375 27.25 22.55 27.2C22.55 27.2 22.55 27.2 22.55 27.1875L23.1875 24.3875C23.325 23.775 23.8 23.3 24.4125 23.1625L27.2125 22.525C27.2625 22.5125 27.2875 22.4625 27.275 22.4125C27.275 22.4125 27.275 22.4125 27.275 22.4L26.425 19.6875Z" fill="#F45D64"/>
<path id="Vector_5" d="M0.999951 12.375H31.0124C31.3874 12.375 31.6874 12.675 31.6874 13.05V18.9375C31.6874 19.3125 31.3874 19.6125 31.0124 19.6125H0.999951C0.624951 19.6125 0.324951 19.3125 0.324951 18.9375V13.05C0.324951 12.675 0.624951 12.375 0.999951 12.375Z" fill="#FCD770"/>
<path id="Vector_6" d="M1 12.3748L3.5 10.7373L4 12.3748H1Z" fill="#FFCD29"/>
<path id="Vector_7" d="M31.0125 12.3748L28.5125 10.7373L28.0125 12.3748H31.0125Z" fill="#FFCD29"/>
<path id="Vector_8" d="M4.54985 26.1127H4.32485V25.8877C4.32485 25.7127 4.18735 25.5752 4.01235 25.5752C3.83735 25.5752 3.69985 25.7127 3.69985 25.8877V26.1127H3.47485C3.29985 26.1127 3.16235 26.2502 3.16235 26.4252C3.16235 26.6002 3.29985 26.7377 3.47485 26.7377H3.69985V26.9627C3.69985 27.1377 3.83735 27.2752 4.01235 27.2752C4.18735 27.2752 4.32485 27.1377 4.32485 26.9627V26.7377H4.54985C4.72485 26.7377 4.86235 26.6002 4.86235 26.4252C4.86235 26.2502 4.72485 26.1127 4.54985 26.1127Z" fill="#60BAE2"/>
<path id="Vector_9" d="M27.575 5.0623C27.575 5.0373 27.5625 5.0248 27.5625 4.9998C27.55 4.9873 27.55 4.9623 27.5375 4.9498C27.525 4.9373 27.5125 4.9123 27.5 4.8998C27.375 4.7873 27.1875 4.7873 27.0625 4.8998C27.05 4.9123 27.0375 4.9248 27.025 4.9498C27 4.9873 26.9875 5.0248 26.975 5.0623C26.9625 5.0998 26.9625 5.1498 26.975 5.1873C26.975 5.2123 26.9875 5.2248 26.9875 5.2498C27 5.2748 27 5.2873 27.0125 5.2998C27.025 5.3123 27.0375 5.3373 27.05 5.3498C27.175 5.4748 27.3625 5.4748 27.4875 5.3498C27.5 5.3373 27.5125 5.3248 27.525 5.2998C27.5375 5.2873 27.55 5.2623 27.55 5.2498C27.5625 5.2373 27.5625 5.2123 27.5625 5.1873C27.5875 5.1373 27.5875 5.0998 27.575 5.0623Z" fill="#F45D64"/>
<path id="Vector_10" d="M6.3374 28.6126C6.3374 28.5876 6.3249 28.5751 6.3249 28.5501C6.3124 28.5376 6.3124 28.5126 6.2999 28.5001C6.2874 28.4876 6.2749 28.4626 6.2624 28.4501C6.1374 28.3376 5.9499 28.3376 5.8249 28.4501C5.8124 28.4626 5.7999 28.4751 5.7874 28.5001C5.7624 28.5376 5.7499 28.5751 5.7374 28.6126C5.7249 28.6501 5.7249 28.7001 5.7374 28.7376C5.7374 28.7626 5.7499 28.7751 5.7499 28.8001C5.7624 28.8251 5.7624 28.8376 5.7749 28.8501C5.7874 28.8626 5.7999 28.8876 5.8124 28.9001C5.9374 29.0251 6.1249 29.0251 6.2499 28.9001C6.2624 28.8876 6.2749 28.8751 6.2874 28.8501C6.2999 28.8376 6.3124 28.8126 6.3124 28.8001C6.3249 28.7876 6.3249 28.7626 6.3249 28.7376C6.3499 28.7001 6.3499 28.6626 6.3374 28.6126Z" fill="#6DCC6D"/>
<path id="Vector_11" d="M26.8499 2.0875C26.3374 1.9875 25.9499 1.5875 25.8499 1.0875C25.8499 1.075 25.8374 1.0625 25.8249 1.0625C25.8124 1.0625 25.8124 1.075 25.7999 1.0875C25.6999 1.6 25.2999 1.9875 24.7999 2.0875C24.7874 2.0875 24.7749 2.1 24.7749 2.1125C24.7749 2.125 24.7874 2.125 24.7999 2.1375C25.3124 2.2375 25.6999 2.6375 25.7999 3.1375C25.7999 3.15 25.8124 3.1625 25.8249 3.1625C25.8374 3.1625 25.8374 3.15 25.8499 3.1375C25.9499 2.625 26.3499 2.2375 26.8499 2.1375C26.8624 2.1375 26.8749 2.125 26.8749 2.1125C26.8749 2.0875 26.8624 2.0875 26.8499 2.0875Z" fill="#FFCD29"/>
<path id="Vector_12" d="M31.0124 19.9377H0.999951C0.449951 19.9377 0.0124512 19.5002 0.0124512 18.9502V13.0627C0.0124512 12.5127 0.449951 12.0752 0.999951 12.0752H31.0124C31.5624 12.0752 31.9999 12.5127 31.9999 13.0627V18.9502C31.9999 19.4877 31.5624 19.9377 31.0124 19.9377ZM0.999951 12.6877C0.799951 12.6877 0.637451 12.8502 0.637451 13.0502V18.9377C0.637451 19.1377 0.799951 19.3002 0.999951 19.3002H31.0124C31.2125 19.3002 31.3749 19.1377 31.3749 18.9377V13.0502C31.3749 12.8502 31.2125 12.6877 31.0124 12.6877H0.999951Z" fill="#231F20"/>
<path id="Vector_13" d="M28.0125 12.6874H3.99998C3.86248 12.6874 3.73748 12.5999 3.69998 12.4624L2.97498 10.1124C2.66248 9.0874 3.23748 7.9999 4.26248 7.6874C4.31248 7.6749 4.34998 7.6624 4.39998 7.6499L7.06248 7.0499L7.66248 4.3874C7.89998 3.3499 8.93748 2.6874 9.98748 2.9249C10.0375 2.9374 10.075 2.9499 10.125 2.9624L12.725 3.7624L14.5875 1.7624C15.3125 0.974902 16.5375 0.937402 17.325 1.6624C17.3625 1.6999 17.3875 1.7249 17.425 1.7624L19.2875 3.7624L21.9 2.9624C22.925 2.6499 24.0125 3.2249 24.325 4.2499C24.3375 4.2999 24.35 4.3374 24.3625 4.3874L24.9625 7.0499L27.625 7.6499C28.6625 7.8874 29.325 8.9249 29.0875 9.9749C29.075 10.0249 29.0625 10.0624 29.05 10.1124L28.325 12.4624C28.2625 12.5999 28.15 12.6874 28.0125 12.6874ZM4.23748 12.0624H27.775L28.4375 9.9249C28.65 9.2374 28.2625 8.4999 27.5625 8.2874C27.5375 8.2749 27.5 8.2749 27.475 8.2624L24.675 7.6249C24.525 7.5874 24.4125 7.4749 24.375 7.3249L23.7375 4.5249C23.575 3.8124 22.875 3.3749 22.1625 3.5374C22.125 3.5499 22.1 3.5499 22.075 3.5624L19.3375 4.4124C19.1875 4.4624 19.025 4.4124 18.925 4.2999L16.975 2.1999C16.475 1.6749 15.65 1.6374 15.125 2.1374C15.1 2.1624 15.075 2.1749 15.0625 2.1999L13.1125 4.2999C13.0125 4.4124 12.85 4.4499 12.7 4.4124L9.96248 3.5624C9.27498 3.3499 8.53748 3.7374 8.32498 4.4374C8.31248 4.4624 8.31248 4.4999 8.29998 4.5249L7.66248 7.3249C7.62498 7.4749 7.51248 7.5874 7.36248 7.6249L4.56248 8.2624C3.84998 8.4249 3.41248 9.1249 3.57498 9.8374C3.58748 9.8749 3.58748 9.8999 3.59998 9.9249L4.23748 12.0624Z" fill="#231F20"/>
<path id="Vector_14" d="M16.0124 30.8373C15.4749 30.8373 14.9624 30.6123 14.5999 30.2248L12.7374 28.2248L10.1249 29.0248C9.09995 29.3373 8.01245 28.7623 7.69995 27.7373C7.68745 27.6873 7.67495 27.6498 7.66245 27.5998L7.06245 24.9373L4.39995 24.3373C3.36245 24.0998 2.69995 23.0623 2.93745 22.0123C2.94995 21.9623 2.96245 21.9248 2.97495 21.8748L3.69995 19.5248C3.73745 19.3998 3.86245 19.2998 3.99995 19.2998H28C28.1374 19.2998 28.2624 19.3873 28.2999 19.5248L29.025 21.8748C29.3375 22.8998 28.7624 23.9873 27.7374 24.2998C27.6874 24.3123 27.65 24.3248 27.6 24.3373L24.9374 24.9373L24.3374 27.5998C24.0999 28.6373 23.0625 29.2998 22.0124 29.0623C21.9625 29.0498 21.9249 29.0373 21.8749 29.0248L19.2624 28.2248L17.3999 30.2248C17.0624 30.6123 16.5499 30.8373 16.0124 30.8373ZM12.7999 27.5623C12.9124 27.5623 13.0249 27.6123 13.0999 27.6873L15.0499 29.7873C15.2999 30.0498 15.6499 30.2123 16.0124 30.1998C16.3749 30.1998 16.7249 30.0498 16.9749 29.7873L18.9249 27.6873C19.0249 27.5748 19.1874 27.5373 19.3374 27.5748L22.0749 28.4248C22.7624 28.6373 23.4999 28.2498 23.7124 27.5498C23.7249 27.5248 23.7249 27.4873 23.7374 27.4623L24.3749 24.6623C24.4124 24.5123 24.5249 24.3998 24.6749 24.3623L27.475 23.7248C28.1875 23.5623 28.6249 22.8623 28.4625 22.1498C28.4499 22.1123 28.4499 22.0873 28.4375 22.0623L27.775 19.9373H4.23745L3.57495 22.0623C3.36245 22.7498 3.74995 23.4873 4.44995 23.6998C4.47495 23.7123 4.51245 23.7123 4.53745 23.7248L7.33745 24.3623C7.48745 24.3998 7.59995 24.5123 7.63745 24.6623L8.27495 27.4623C8.43745 28.1748 9.13745 28.6123 9.84995 28.4498C9.87495 28.4373 9.91245 28.4373 9.93745 28.4248L12.6749 27.5748C12.7249 27.5748 12.7624 27.5623 12.7999 27.5623Z" fill="#231F20"/>
<path id="Vector_15" d="M26.4001 12.6875H5.61256C5.47506 12.6875 5.35006 12.5875 5.31256 12.45V12.425C5.31256 12.4125 5.31256 12.4 5.30006 12.3875L4.45006 9.65C4.38756 9.4375 4.50006 9.2125 4.71256 9.15C4.72506 9.15 4.73756 9.15 4.73756 9.1375L7.53756 8.5C8.02506 8.3875 8.41256 8 8.52506 7.5125L9.16256 4.7125C9.21256 4.5 9.42506 4.3625 9.63756 4.4125C9.65006 4.4125 9.66256 4.4125 9.66256 4.425L12.4001 5.275C12.8751 5.425 13.4001 5.2875 13.7501 4.9125L15.7001 2.8125C15.7751 2.725 15.8876 2.6875 16.0001 2.6875C16.1126 2.6875 16.2126 2.7375 16.3001 2.8125L18.2501 4.925C18.5876 5.2875 19.1126 5.4375 19.6001 5.2875L22.3376 4.4375C22.5501 4.375 22.7751 4.4875 22.8376 4.7C22.8376 4.7125 22.8376 4.725 22.8501 4.725L23.4876 7.525C23.6001 8.0125 23.9876 8.4 24.4751 8.5125L27.2751 9.15C27.4876 9.2 27.6251 9.4125 27.5751 9.625C27.5751 9.6375 27.5751 9.65 27.5626 9.65L26.7126 12.3875C26.7126 12.4 26.7126 12.4125 26.7001 12.425V12.45C26.6751 12.6 26.5501 12.6875 26.4001 12.6875ZM5.83756 12.0625H26.1626L26.8876 9.7125L24.3376 9.125C23.6126 8.9625 23.0501 8.3875 22.8751 7.6625L22.2876 5.1L19.7751 5.875C19.0626 6.0875 18.2876 5.8875 17.7876 5.3375L16.0001 3.4125L14.2126 5.3375C13.7001 5.875 12.9376 6.0875 12.2251 5.875L9.71256 5.1L9.12506 7.6625C8.96256 8.3875 8.38756 8.95 7.66256 9.125L5.10006 9.7125L5.83756 12.0625Z" fill="#231F20"/>
<path id="Vector_16" d="M16.0125 29.3002C15.9 29.3002 15.8 29.2502 15.7125 29.1752L13.7625 27.0752C13.425 26.7127 12.9 26.5627 12.4125 26.7127L9.67503 27.5627C9.46253 27.6252 9.23753 27.5127 9.17503 27.3002C9.17503 27.2877 9.17503 27.2752 9.16253 27.2752L8.52503 24.4752C8.41253 23.9877 8.02503 23.6002 7.53753 23.4877L4.73753 22.8502C4.52503 22.8002 4.38753 22.5877 4.43753 22.3752C4.43753 22.3627 4.43753 22.3502 4.45003 22.3502L5.30003 19.6127C5.30003 19.6002 5.30003 19.5877 5.31253 19.5877V19.5627C5.35003 19.4252 5.47503 19.3252 5.61253 19.3252H26.4125C26.55 19.3252 26.675 19.4252 26.7125 19.5627V19.5877C26.7125 19.6002 26.7125 19.6127 26.725 19.6127L27.575 22.3502C27.6375 22.5627 27.525 22.7877 27.3125 22.8502C27.3 22.8502 27.2875 22.8502 27.2875 22.8627L24.4875 23.5002C24 23.6127 23.6125 24.0002 23.5 24.4877L22.8625 27.2877C22.8125 27.5002 22.6 27.6377 22.3875 27.5877C22.375 27.5877 22.3625 27.5877 22.3625 27.5752L19.625 26.7252C19.15 26.5752 18.625 26.7127 18.275 27.0877L16.325 29.1877C16.225 29.2627 16.125 29.3002 16.0125 29.3002ZM12.8 26.0377C13.3375 26.0377 13.85 26.2627 14.225 26.6502L16.0125 28.5752L17.8 26.6502C18.3125 26.1127 19.075 25.9002 19.7875 26.1127L22.3 26.8877L22.8875 24.3252C23.05 23.6002 23.625 23.0377 24.35 22.8627L26.9125 22.2752L26.1875 19.9252H5.83753L5.11253 22.2752L7.67503 22.8627C8.40003 23.0252 8.96253 23.6002 9.13753 24.3252L9.72503 26.8877L12.2375 26.1127C12.4125 26.0627 12.6 26.0377 12.8 26.0377Z" fill="#231F20"/>
<path id="Vector_17" d="M4 12.6875H1C0.825 12.6875 0.6875 12.55 0.6875 12.375C0.6875 12.275 0.7375 12.175 0.825 12.1125L3.325 10.475C3.475 10.375 3.6625 10.425 3.7625 10.5625C3.775 10.5875 3.7875 10.6125 3.8 10.6375L4.3 12.275C4.35 12.4375 4.2625 12.6125 4.0875 12.6625C4.0625 12.6875 4.0375 12.6875 4 12.6875ZM2.05 12.0625H3.5875L3.325 11.225L2.05 12.0625Z" fill="#231F20"/>
<path id="Vector_18" d="M31.0125 12.6877H28.0125C27.8375 12.6877 27.7 12.5502 27.7 12.3752C27.7 12.3502 27.7 12.3127 27.7125 12.2877L28.2124 10.6502C28.2624 10.4877 28.4375 10.3877 28.6 10.4377C28.625 10.4502 28.6499 10.4627 28.6749 10.4752L31.1749 12.1127C31.3249 12.2127 31.3625 12.4002 31.2625 12.5502C31.2125 12.6377 31.1125 12.6877 31.0125 12.6877ZM28.4375 12.0627H29.975L28.7 11.2252L28.4375 12.0627Z" fill="#231F20"/>
<path id="Vector_19" d="M16.4749 25.3124H14.9874C14.8124 25.3124 14.6749 25.1749 14.6749 24.9999C14.6749 24.8249 14.8124 24.6874 14.9874 24.6874H16.4749C16.7624 24.6874 16.9999 24.4499 16.9999 24.1624C16.9999 23.8749 16.7624 23.6374 16.4749 23.6374H15.5499C14.9124 23.6374 14.3999 23.1249 14.3999 22.4874C14.3999 21.8499 14.9124 21.3374 15.5499 21.3374H16.8624C17.0374 21.3374 17.1749 21.4749 17.1749 21.6499C17.1749 21.8249 17.0374 21.9624 16.8624 21.9624H15.5499C15.2624 21.9624 15.0249 22.1999 15.0249 22.4874C15.0249 22.7749 15.2624 23.0124 15.5499 23.0124H16.4749C17.1124 23.0124 17.6249 23.5249 17.6249 24.1624C17.6249 24.7999 17.1124 25.3124 16.4749 25.3124Z" fill="#231F20"/>
<path id="Vector_20" d="M16.0125 25.8877C15.8375 25.8877 15.7 25.7502 15.7 25.5752V21.0752C15.7 20.9002 15.8375 20.7627 16.0125 20.7627C16.1875 20.7627 16.325 20.9002 16.325 21.0752V25.5752C16.325 25.7377 16.175 25.8877 16.0125 25.8877Z" fill="#231F20"/>
<path id="Vector_21" d="M20.6624 24.1873H19.5999C19.4249 24.1873 19.2874 24.0498 19.2874 23.8748C19.2874 23.6998 19.4249 23.5623 19.5999 23.5623H20.6624C20.8249 23.5623 20.9499 23.4373 20.9499 23.2873C20.9499 23.1248 20.8249 22.9998 20.6749 22.9998H20.6624H19.9999C19.4999 22.9998 19.0874 22.5873 19.0874 22.0873C19.0874 21.5873 19.4999 21.1748 19.9999 21.1748H20.9374C21.1124 21.1748 21.2499 21.3123 21.2499 21.4873C21.2499 21.6623 21.1124 21.7998 20.9374 21.7998H19.9999C19.8374 21.7998 19.7124 21.9248 19.7124 22.0873C19.7124 22.2498 19.8374 22.3748 19.9999 22.3748H20.6624C21.1624 22.3748 21.5749 22.7748 21.5874 23.2748C21.5999 23.7748 21.1874 24.1873 20.6874 24.1998C20.6749 24.1873 20.6749 24.1873 20.6624 24.1873Z" fill="#231F20"/>
<path id="Vector_22" d="M20.325 24.6002C20.15 24.6002 20.0125 24.4627 20.0125 24.2877V21.0752C20.0125 20.9002 20.15 20.7627 20.325 20.7627C20.5 20.7627 20.6375 20.9002 20.6375 21.0752V24.2877C20.6375 24.4627 20.5 24.6002 20.325 24.6002Z" fill="#231F20"/>
<path id="Vector_23" d="M12.0125 24.1873H10.95C10.775 24.1873 10.6375 24.0498 10.6375 23.8748C10.6375 23.6998 10.775 23.5623 10.95 23.5623H12.0125C12.175 23.5623 12.3 23.4248 12.2875 23.2748C12.2875 23.1248 12.1625 22.9998 12.0125 22.9998H11.35C10.85 22.9998 10.4375 22.5873 10.4375 22.0873C10.4375 21.5873 10.85 21.1748 11.35 21.1748H12.2875C12.4625 21.1748 12.6 21.3123 12.6 21.4873C12.6 21.6623 12.4625 21.7998 12.2875 21.7998H11.35C11.1875 21.7998 11.0625 21.9248 11.0625 22.0873C11.0625 22.2498 11.1875 22.3748 11.35 22.3748H12.0125C12.5125 22.3748 12.925 22.7998 12.9125 23.2998C12.9125 23.7873 12.5125 24.1873 12.0125 24.1873Z" fill="#231F20"/>
<path id="Vector_24" d="M11.6875 24.6002C11.5125 24.6002 11.375 24.4627 11.375 24.2877V21.0752C11.375 20.9002 11.5125 20.7627 11.6875 20.7627C11.8625 20.7627 12 20.9002 12 21.0752V24.2877C12 24.4627 11.85 24.6002 11.6875 24.6002Z" fill="#231F20"/>
<path id="Vector_25" d="M11.25 8.2375L11.0125 8.3625C10.875 8.4375 10.7 8.3875 10.625 8.25C10.6125 8.225 10.6 8.2 10.6 8.175C10.575 8.05 10.6375 7.925 10.75 7.875L11.2875 7.6C11.325 7.575 11.375 7.5625 11.4125 7.5625H11.6375C11.7875 7.5625 11.925 7.6875 11.925 7.85V10.5375C11.925 10.725 11.775 10.875 11.5875 10.875C11.4 10.875 11.25 10.725 11.25 10.5375V8.2375Z" fill="black"/>
<path id="Vector_26" d="M15.0999 9.1873C15.0999 10.2123 14.7249 10.9123 13.9624 10.9123C13.1874 10.9123 12.8499 10.1373 12.8499 9.1998C12.8499 8.2373 13.2124 7.4873 13.9874 7.4873C14.7874 7.4873 15.0999 8.2873 15.0999 9.1873ZM13.5624 9.2123C13.5624 9.9748 13.7249 10.3373 13.9999 10.3373C14.2749 10.3373 14.4124 9.9623 14.4124 9.1998C14.4124 8.4623 14.2749 8.0748 13.9874 8.0748C13.7249 8.0748 13.5499 8.4373 13.5624 9.2123Z" fill="black"/>
<path id="Vector_27" d="M17.6499 9.1873C17.6499 10.2123 17.2749 10.9123 16.5124 10.9123C15.7374 10.9123 15.3999 10.1373 15.3999 9.1998C15.3999 8.2373 15.7624 7.4873 16.5374 7.4873C17.3374 7.4873 17.6499 8.2873 17.6499 9.1873ZM16.0999 9.2123C16.0999 9.9748 16.2624 10.3373 16.5374 10.3373C16.8124 10.3373 16.9499 9.9623 16.9499 9.1998C16.9499 8.4623 16.8124 8.0748 16.5249 8.0748C16.2749 8.0748 16.0999 8.4373 16.0999 9.2123Z" fill="black"/>
<path id="Vector_28" d="M18.7374 9.53756C17.6374 9.53756 17.6624 7.50006 18.7624 7.50006C19.8874 7.48756 19.7999 9.53756 18.7374 9.53756ZM18.7499 9.11256C18.9499 9.11256 19.0499 8.88756 19.0499 8.51256C19.0499 8.17506 18.9624 7.91256 18.7499 7.91256C18.3374 7.91256 18.3374 9.11256 18.7499 9.11256ZM20.8874 10.9126C19.7874 10.9126 19.7999 8.87506 20.9124 8.87506C22.0249 8.87506 21.9499 10.9126 20.8874 10.9126ZM20.5999 9.88756C20.5999 10.2376 20.6999 10.4876 20.8999 10.4876C21.0999 10.4876 21.1999 10.2626 21.1999 9.88756C21.1999 9.55006 21.1249 9.28756 20.8999 9.28756C20.6874 9.28756 20.5999 9.56256 20.5999 9.88756Z" fill="black"/>
<path id="Vector_29" d="M5.12486 14.2876C4.88736 14.2876 4.67486 14.4501 4.61236 14.6751L4.39986 15.4251C4.29986 15.8126 4.18736 16.2626 4.11236 16.6626H4.09986C4.02486 16.2626 3.93736 15.8376 3.83736 15.4376L3.63736 14.7001C3.57486 14.4626 3.36236 14.3001 3.11236 14.3001C2.82486 14.3001 2.58736 14.5251 2.57486 14.8126L2.42486 17.4001C2.41236 17.5751 2.54986 17.7251 2.72486 17.7376H2.73736C2.91236 17.7376 3.04986 17.6001 3.06236 17.4251L3.09986 16.4251C3.12486 16.0001 3.13736 15.4626 3.14986 15.0001H3.16236C3.23736 15.4501 3.33736 15.9376 3.43736 16.3376L3.69986 17.4001C3.73736 17.5626 3.88736 17.6626 4.04986 17.6626C4.21236 17.6626 4.34986 17.5626 4.38736 17.4001L4.68736 16.3126C4.81236 15.9126 4.93736 15.4251 5.03736 14.9876H5.04986C5.04986 15.4876 5.06236 15.9876 5.07486 16.4001L5.11236 17.3876C5.12486 17.5751 5.26236 17.7126 5.44986 17.7126C5.63736 17.7126 5.78736 17.5626 5.78736 17.3751V17.3626L5.66236 14.7876C5.64986 14.5126 5.41236 14.2876 5.12486 14.2876Z" fill="black"/>
<path id="Vector_30" d="M7.7124 14.2373C6.7999 14.2373 6.2124 15.0123 6.2124 16.0373C6.2124 17.0123 6.7499 17.7873 7.6624 17.7873C8.5624 17.7873 9.1874 17.0998 9.1874 15.9748C9.1749 15.0248 8.6624 14.2373 7.7124 14.2373ZM7.6999 17.1623C7.2374 17.1623 6.9499 16.6873 6.9499 16.0123C6.9499 15.3498 7.2249 14.8498 7.6999 14.8498C8.1874 14.8498 8.4499 15.3748 8.4499 15.9998C8.4374 16.6623 8.1624 17.1623 7.6999 17.1623Z" fill="black"/>
<path id="Vector_31" d="M11.8749 14.2876C11.6999 14.2876 11.5499 14.4376 11.5499 14.6126V15.3001C11.5499 15.7751 11.5624 16.2626 11.6124 16.7376H11.5999C11.4499 16.3376 11.2874 15.9376 11.0999 15.5626L10.5874 14.5501C10.5124 14.4001 10.3499 14.3001 10.1874 14.3001H10.0999C9.8499 14.3001 9.6499 14.5001 9.6499 14.7501V17.4126C9.6499 17.5876 9.7999 17.7376 9.9749 17.7376C10.1499 17.7376 10.2999 17.5876 10.2999 17.4126V16.7001C10.2999 16.1376 10.2874 15.6501 10.2749 15.2001H10.2874C10.4374 15.6001 10.6374 16.0501 10.8249 16.4126L11.3624 17.4876C11.4374 17.6376 11.5999 17.7376 11.7624 17.7376C12.0124 17.7376 12.2124 17.5376 12.2124 17.2876V14.6251C12.1999 14.4376 12.0499 14.2876 11.8749 14.2876Z" fill="black"/>
<path id="Vector_32" d="M14.4625 17.0877H13.7375C13.6125 17.0877 13.5125 16.9877 13.5125 16.8627V16.5002C13.5125 16.3752 13.6125 16.2752 13.7375 16.2752H14.325C14.5 16.2752 14.6375 16.1377 14.6375 15.9627C14.6375 15.7877 14.5 15.6502 14.325 15.6502H13.7375C13.6125 15.6502 13.5125 15.5502 13.5125 15.4252V15.1752C13.5125 15.0502 13.6125 14.9502 13.7375 14.9502H14.4C14.575 14.9502 14.7125 14.8127 14.7125 14.6377C14.7125 14.4627 14.575 14.3252 14.4 14.3252H13.2375C13 14.3252 12.8125 14.5127 12.8125 14.7502V17.3252C12.8125 17.5627 13 17.7502 13.2375 17.7502H14.4625C14.6375 17.7502 14.775 17.6127 14.775 17.4377C14.775 17.2252 14.6375 17.0877 14.4625 17.0877Z" fill="black"/>
<path id="Vector_33" d="M17.1375 14.2876C17 14.2876 16.875 14.3751 16.825 14.5001L16.6 15.1126L16.5 15.4001C16.475 15.4751 16.3875 15.5126 16.3125 15.4876C16.275 15.4751 16.2375 15.4376 16.225 15.4001C16.1875 15.3126 16.1625 15.2126 16.1125 15.1126L15.875 14.5001C15.825 14.3751 15.7 14.2876 15.5625 14.2876H15.5375C15.35 14.2876 15.2 14.4376 15.2 14.6251C15.2 14.6751 15.2125 14.7251 15.2375 14.7751L15.9625 16.2751C15.975 16.3001 15.9875 16.3376 15.9875 16.3751V17.3876C15.9875 17.5751 16.1375 17.7251 16.325 17.7251H16.35C16.5375 17.7251 16.6875 17.5751 16.6875 17.3876V16.3501C16.6875 16.3126 16.7 16.2751 16.7125 16.2501L17.4625 14.7876C17.55 14.6251 17.4875 14.4126 17.3125 14.3376C17.2375 14.3001 17.1875 14.2876 17.1375 14.2876Z" fill="black"/>
<path id="Vector_34" d="M20.625 15.875C20.9375 15.75 21.1375 15.4625 21.1375 15.125C21.15 14.85 21 14.5875 20.7625 14.45C20.5375 14.3 20.275 14.25 19.85 14.25C19.6875 14.25 19.525 14.2625 19.375 14.2625C19.1375 14.275 18.95 14.475 18.95 14.7125V17.275C18.95 17.5125 19.1375 17.7125 19.3875 17.725C19.4875 17.725 19.5875 17.7375 19.7125 17.7375C20.3249 17.7375 20.6999 17.625 20.9249 17.425C21.1374 17.2375 21.25 16.975 21.25 16.7C21.25 16.325 21 15.975 20.625 15.875ZM19.6375 15.0625C19.6375 14.9375 19.7374 14.8375 19.8624 14.8375C19.8874 14.8375 19.9125 14.8375 19.9375 14.8375C20.25 14.8375 20.4375 14.975 20.4375 15.2375C20.4375 15.4875 20.2375 15.6625 19.875 15.6625C19.75 15.6625 19.65 15.5625 19.65 15.4375L19.6375 15.0625ZM19.9125 17.1875H19.875C19.75 17.1875 19.65 17.0875 19.65 16.9625V16.4375C19.65 16.3125 19.75 16.2125 19.875 16.2125H19.8875C20.2375 16.2125 20.5125 16.35 20.5125 16.7C20.5 17.05 20.225 17.1875 19.9125 17.1875Z" fill="black"/>
<path id="Vector_35" d="M23.4626 14.7251C23.3876 14.4626 23.1501 14.2876 22.8876 14.2876C22.6126 14.2876 22.3751 14.4751 22.3001 14.7251L21.6001 17.2751C21.5501 17.4626 21.6626 17.6501 21.8376 17.7001C21.8626 17.7126 21.9001 17.7126 21.9251 17.7126C22.0876 17.7126 22.2251 17.6001 22.2626 17.4501L22.3751 17.0001C22.4001 16.9001 22.4876 16.8251 22.6001 16.8251H23.1251C23.2251 16.8251 23.3251 16.9001 23.3501 17.0001L23.4751 17.4626C23.5126 17.6126 23.6501 17.7126 23.8126 17.7126H23.8376C24.0251 17.7126 24.1876 17.5626 24.1876 17.3626C24.1876 17.3251 24.1876 17.3001 24.1751 17.2751L23.4626 14.7251ZM23.1001 16.2626H22.6251C22.5751 16.2626 22.5376 16.2251 22.5376 16.1751C22.5376 16.1626 22.5376 16.1626 22.5376 16.1501L22.7001 15.5251C22.7251 15.4126 22.7501 15.2876 22.7876 15.1501C22.8001 15.1126 22.8251 15.0876 22.8626 15.1001C22.8876 15.1001 22.9126 15.1251 22.9126 15.1501L23.0001 15.5251L23.1626 16.1501C23.1751 16.1876 23.1501 16.2376 23.1001 16.2501C23.1126 16.2626 23.1001 16.2626 23.1001 16.2626Z" fill="black"/>
<path id="Vector_36" d="M26.6124 14.2873C26.4624 14.2498 26.3 14.2373 26.1375 14.2373C25.2 14.2373 24.45 14.8873 24.45 16.0623C24.45 17.0373 25 17.7748 26.075 17.7748C26.25 17.7748 26.4124 17.7623 26.5874 17.7248C26.7499 17.6873 26.85 17.5248 26.825 17.3623C26.8 17.1873 26.6374 17.0748 26.4624 17.0998C26.3749 17.1123 26.2749 17.1248 26.1749 17.1248C25.5499 17.1248 25.1875 16.6873 25.1875 15.9998C25.1875 15.2373 25.6249 14.8623 26.1749 14.8623C26.2749 14.8623 26.375 14.8748 26.475 14.8873C26.6375 14.9248 26.7999 14.8123 26.8374 14.6498V14.6373C26.8749 14.4873 26.7749 14.3248 26.6124 14.2873Z" fill="black"/>
<path id="Vector_37" d="M29.575 17.2125L28.85 15.875C28.8125 15.8 28.8125 15.7 28.8625 15.6375L29.4125 14.85C29.5375 14.7125 29.5125 14.5 29.375 14.375C29.3375 14.3375 29.2875 14.325 29.2375 14.3125C29.0875 14.2625 28.925 14.325 28.8375 14.4625L28.2375 15.4375C28.2125 15.475 28.175 15.5 28.1375 15.5C28.075 15.5 28.0125 15.45 28.0125 15.375V14.65C28.0125 14.4625 27.8625 14.3 27.6625 14.3C27.475 14.3 27.3125 14.45 27.3125 14.65V17.4C27.3125 17.5875 27.4625 17.75 27.6625 17.75C27.85 17.75 28.0125 17.6 28.0125 17.4V16.7C28.0125 16.65 28.025 16.6 28.0625 16.5625C28.1375 16.4625 28.2875 16.4375 28.3875 16.5125C28.4125 16.5375 28.4375 16.5625 28.45 16.5875L28.9375 17.55C29 17.6625 29.1125 17.7375 29.25 17.7375H29.275C29.4625 17.7375 29.625 17.5875 29.625 17.3875C29.625 17.325 29.6 17.2625 29.575 17.2125Z" fill="black"/>
<path id="Vector_38" d="M18.8999 10.675L20.4499 7.58748C20.4874 7.49998 20.5999 7.47498 20.6749 7.51248C20.7499 7.54998 20.7874 7.64998 20.7499 7.73748L19.1999 10.825C19.1499 10.9 19.0499 10.9375 18.9749 10.8875C18.8874 10.85 18.8624 10.7625 18.8999 10.675Z" fill="black"/>
</g>
</g>
</svg>
